<svg width="180" height="180" viewBox="0 0 180 180" fill="none" xmlns="http://www.w3.org/2000/svg">
<g clip-path="url(#clip0_187_9045)">
<path d="M160.736 4.78833L161.117 5.047L161.702 5.14229L161.117 4.91086L160.872 4.78833H160.736ZM161.702 5.14229L161.988 5.26482L161.907 5.18313L161.702 5.14229ZM161.988 5.26482L163.322 6.59899L162.424 5.4418L161.988 5.26482ZM163.322 6.59899L162.669 6.47646L162.56 7.37498L162.669 7.38859V6.73512L163.322 6.59899ZM162.56 7.37498L161.512 7.25246L162.56 7.3886V7.37498ZM155.549 7.64726L153.997 8.02845L153.602 8.68192L153.738 9.19925L155.426 9.58044L152.581 9.06311L149.6 10.0978L147.272 10.8738L147.013 12.1671L146.223 12.5619L145.842 12.8206L145.978 12.9567L146.618 13.474L147.911 13.6102L148.17 14.1139L146.877 14.5087L145.72 14.25L145.978 14.8899L144.29 16.3194L144.671 17.354L142.997 16.7005V16.8367L142.874 16.7005L141.05 16.1968L139.757 16.8367L138.845 18.2525H136.013L136.122 17.6127H134.828L134.325 17.8577L134.706 19.3008L133.807 18.3887L134.461 18.7835L134.325 17.9939L133.154 18.7835L134.189 17.8577L130.948 18.6473L131.466 19.0421L131.085 19.5459L130.826 19.9407L131.221 19.682H131.33V19.8045L131.466 20.0768L131.724 20.3355L131.983 20.458L132.378 20.8528H132.242L131.221 21.0979L131.602 21.8875L130.05 21.4927L129.138 22.2823L127.981 21.7513L128.239 23.8206L125.394 22.2823L126.034 21.8875L125.122 21.6288L125.503 21.234L124.604 20.5941L123.311 20.8528L121.882 20.3355L121.759 22.0236L120.071 22.1461L119.036 22.0236L119.172 21.3701L117.226 21.4927L116.327 22.4048L115.537 21.234L115.401 21.7513L114.898 21.234L113.985 21.3701V22.0236L114.639 21.8875L112.161 22.9221L111.794 23.5756L112.433 22.1461L115.401 19.3008L114.503 18.5112L115.292 18.906V18.3887L113.604 17.0953L111.521 17.7488L111.916 17.0953L110.364 16.9592L111.263 16.4419L110.228 15.9245L109.057 16.9592L108.935 17.8577H108.417H107.9L108.281 18.5112L107.9 18.13L106.225 18.7835L106.471 18.3887L105.177 18.2525L104.919 18.6473H105.572L101.678 19.4369L101.433 20.3355L101.039 19.8045L101.297 21.4927L97.4036 21.3701L96.8999 23.0446L98.0571 24.6103L97.1586 27.3194L97.0224 27.7142L96.6276 27.1969L96.5051 26.8157L97.1586 25.6313L96.369 26.1622L97.9209 24.4741L96.7638 24.2154L96.1103 23.5756L95.4704 22.9221L94.817 23.0446V23.6981L93.6598 23.3169L94.4358 25.1276L93.1288 24.4741L93.7823 21.7513L93.3875 22.6635L91.5768 23.5756V24.9914L91.0731 25.9036L90.0248 27.1969L91.5768 27.4556L92.489 28.2316L92.3665 29.4024L91.4407 30.0422L92.2303 30.6957L91.1956 30.0422L91.8355 27.9729H90.4197L89.5075 29.661L86.4035 31.5942L84.7154 30.1647L86.7983 30.3009L89.385 28.3677L89.1263 27.1969L90.1474 25.6313L90.937 24.338V23.3169L92.6251 21.6288L92.0942 21.0979L91.3318 20.7303L91.0731 20.5941L89.1263 22.4048L87.6969 22.786L86.5397 24.4741L86.1449 25.1276L86.9209 25.5088L87.057 26.5571L85.6139 27.5781L84.9741 25.5088L85.2463 25.7674L84.5929 25.0731L84.8788 25.6449L84.3614 27.6462L84.3342 27.9184L82.2921 28.9531L79.0656 29.7019L76.0161 30.2192L73.1299 34.14H72.8441L72.2859 34.3578L72.0817 34.8752L71.1695 35.8826L69.3589 37.8294L66.9084 40.2935L66.0098 40.3888L64.7574 41.0695L64.6076 41.7366L65.0977 42.5398L65.1385 43.0708L64.6076 43.6698L63.3823 43.8604L61.5308 43.275L60.9046 43.3839L60.6731 44.0238L60.7276 46.1611L60.9999 46.2837L61.2313 46.6649L62.0754 46.7057L63.2326 46.6784L63.7499 46.8554L64.0222 47.4L63.7771 47.8084L61.8984 48.8294L61.6942 49.4012L61.4628 49.4965L61.3675 49.7824L61.6534 50.3951L62.6744 51.3344L62.3613 51.4978L62.8514 52.4508L63.2462 52.9545L63.2054 53.2948L62.8514 53.6896L62.4294 54.1253L61.1769 53.2948L60.2511 53.7169L59.8836 52.0151L59.1348 51.7973L58.985 51.9062L58.1138 50.8307L57.8551 50.327L57.542 49.6599L56.9021 49.0745L55.8402 49.0064L53.8662 48.2304L52.355 48.0807L52.0555 48.3257L51.0889 49.4693L50.7486 51.9198L49.8365 52.9L49.1422 53.6216L49.006 54.3159L48.7201 55.0374L50.136 56.3307V57.0931L48.4478 58.6451L48.7065 59.2986L47.032 58.1414L45.9973 58.7812L46.2424 59.6934L45.2077 58.6451L44.8265 59.1761L45.2077 59.8295L44.4453 61.8852L45.4664 63.5734L44.5679 64.4719L44.0505 66.5548L44.9627 65.0028L45.8612 65.2615L45.9973 67.8481L44.4453 67.9843L44.0505 66.691L43.0159 67.8481L42.8797 69.1415L43.0159 68.5016L43.6557 69.0189L43.4107 69.9311L43.0159 69.4001L42.4985 70.1897H43.152V71.2244L41.3277 74.9818L38.7411 73.9336L36.7943 70.2987L37.6928 67.712L38.7411 67.3308L39.6396 66.0511L40.7696 66.1872L40.048 65.3159L39.5307 64.3902L39.1495 63.5597L39.0134 63.056L38.9453 62.634L39.1359 62.4434L39.0951 62.0078L38.8909 61.4224L38.673 60.7961L38.4008 60.2652L38.0332 59.53L37.6112 58.7676L37.7065 58.577L37.5159 57.8827L37.2844 57.1203L36.7943 56.249L36.4812 56.1129L36.3723 55.7181L36.0319 54.8332L35.678 54.0572L35.4601 53.2948L35.0245 50.2861L35.1062 53.6079L35.3785 55.8134L34.6025 57.6377L33.8129 58.155L32.2609 57.8963L32.1383 57.7602L30.9675 56.603L29.9329 54.5201L30.069 52.056L28.9118 50.7762L26.5702 50.504L25.6717 48.6933L25.1408 49.3332L25.3994 49.9866L24.7596 49.3332L24.3784 49.8641L23.4663 47.8084L22.5541 48.0398L21.9006 48.6933L22.4316 49.2242L21.2608 50.504V51.1574L20.866 50.8852L21.1383 50.1228L20.6073 50.6401V51.9334L20.2125 52.1921L19.9675 53.3629L19.4501 53.4718L20.1036 54.2614L19.1915 54.1253L19.9675 54.6562L19.8449 56.9842L20.2125 57.5015L21.1383 56.603L21.3969 57.1067L21.5195 59.8295L22.5541 60.6055L23.5888 60.2243L23.7249 61.2454L24.6234 61.3815L23.0714 63.0696L22.1593 65.0164L17.6259 68.8964L16.4278 72.7083L14.9167 74.5871L15.3115 75.2405L14.658 82.102L14.1407 83.6539L14.658 85.7369L14.2768 88.7183L13.4872 91.1689L13.7459 93.1156L14.1407 95.0488L14.5219 102.183L13.6234 104.769L13.4872 110.079L15.3115 111.386L16.21 110.991L20.2125 112.407L21.2608 111.889L25.2769 112.679L25.9304 111.386L29.6742 112.407L30.5864 111.249L31.8797 111.753L32.9143 110.46L34.4663 110.855L34.9973 108.527L35.6371 108.145L36.0319 108.649L38.7411 106.199L37.9651 103.081L36.0319 101.148L35.501 99.732L35.7597 97.2543L36.5493 96.0971L32.0022 98.5476L30.2052 97.2543L29.4155 97.3904L28.6396 95.961L29.9329 93.2518L29.2794 92.5983L28.2584 94.8038L28.1222 91.8223L28.7757 90.774L27.9861 87.9287L28.517 84.1849L27.9861 83.7901L28.7757 83.9126L28.9118 83.0141V82.7554L29.8104 83.6539L30.2052 83.0141L30.5864 84.1849L31.3623 84.3074V84.7022L31.2262 89.3582L32.2609 90.6651L33.173 93.5105L34.3438 94.6676H37.3253V97.7852L40.6879 100.494L43.0159 102.319L50.3947 103.98L50.2721 105.668L51.1843 106.063V107.873L51.4702 107.955L51.688 107.615L51.9194 108.105L52.4776 108.268L52.2189 109.044L53.24 108.649L52.4776 109.167L53.3761 110.991L55.459 111.386L54.9281 112.025L52.7226 111.753L55.3229 115.905L57.6509 115.647L58.3044 113.577L59.339 113.972L58.563 114.353L58.4269 114.993L59.0667 115.129L58.4269 115.647L58.8217 116.94L58.0457 118.506L58.3044 126.143L61.6534 136.503L62.0482 138.695L62.5792 140.901L64.3898 142.834L65.2883 142.466L65.8193 141.418L67.4938 141.282L66.9765 140.901L67.6163 139.988L67.875 139.594L68.9233 139.73V137.143L69.427 135.986L70.2166 134.42L69.9579 130.922L70.4752 129.887L71.7686 130.023L72.5446 128.988L74.4914 128.866V127.94L78.1263 126.143L80.0595 124.332L82.6461 123.543L84.062 122.25L83.8169 120.956L85.5051 120.452L86.0088 119.527L86.2674 120.82L87.1796 119.922L87.833 120.956V120.058L88.2142 120.698L88.7316 120.058L89.2489 120.698L89.5076 119.527L90.0249 120.698L90.6784 119.268L90.8009 120.452L91.1957 120.18L91.0732 118.873L92.489 119.009L94.6809 124.332L95.2118 123.679L95.0757 124.455L96.5051 124.972L97.0225 126.143L95.8517 126.007L96.7638 127.178L97.1586 126.143L97.921 129.764L97.1586 132.746L97.921 132.215L97.4037 133.005L97.921 132.474L98.5745 133.263L98.9556 132.474L99.4866 133.263L100.004 132.351L101.297 132.106L100.902 131.316L101.556 131.97L102.332 131.316V130.023L103.23 131.97L104.02 131.834V135.074L104.674 137.661L104.919 136.885L105.831 139.09L105.572 140.778L106.226 141.173L105.313 142.97L105.572 144.263L105.967 143.76L105.831 144.263L104.919 147.64L105.695 147.245L108.417 150.349L108.676 150.607L109.575 154.487L111.004 157.088L115.537 159.674L116.45 158.898L117.089 159.416L115.401 156.965V153.984L114.761 152.69L111.521 150.104L109.329 149.45L108.417 146.605L108.159 145.557L106.865 145.693L106.729 144.263V143.623L108.417 140.383V139.594L108.281 138.178H108.417L110.364 137.797L110.105 139.349L111.916 139.226L113.74 140.247L114.639 142.589L115.537 142.071L115.674 143.229L116.191 142.834L118.641 144.005L117.988 146.346H119.036L120.861 145.053L120.071 144.005L121.5 144.658L120.983 143.882L120.724 143.623L121.228 143.882L121.623 144.263L121.364 143.882L121.119 143.487L122.018 143.76L121.228 143.365H122.018L121.882 142.834L122.916 143.106L126.292 141.037L126.551 138.573L127.055 138.437L125.898 133.658L124.604 132.106L122.276 130.799L119.295 127.042L119.676 125.095L120.983 124.196L120.861 123.284L121.364 123.42L120.983 122.767H122.276L123.052 121.61L124.346 121.474L124.468 120.698L125.639 121.61L126.551 120.82L127.191 121.351L126.687 122.508L127.327 123.802L127.981 123.679V121.474L128.103 121.868L130.295 120.956V120.452H131.602V119.799L132.637 120.058L132.514 118.628L132.882 119.527L133.154 118.873L133.671 119.146L133.154 117.457L135.101 118.873L134.828 118.37L135.877 117.58L136.013 118.111L136.775 117.321L137.293 117.716L138.845 116.818L139.239 116.164L138.722 115.905L140.015 115.388L140.151 114.612L140.655 114.993L141.445 113.7L140.791 113.319L142.343 113.046L142.085 112.284H142.874L142.479 111.494H143.255V110.732L143.895 111.113L143.392 109.697L144.031 108.908H143.392L143.773 108.785L143.255 108.268L144.031 108.391H144.29L145.066 105.668L144.549 105.287L146.223 104.633L145.583 103.871L146.223 103.217L145.583 102.822L146.482 102.564L146.359 101.788L145.461 102.319L146.482 101.148L146.114 101.012L144.944 100.631L143.133 101.27L145.72 99.2011L143.514 97.7852H142.343L145.461 97.6491L143.392 96.2196L141.84 92.9795H141.309L139.893 92.5983L139.757 91.9585L140.791 90.3929L141.186 89.7394L140.791 89.3582L141.703 89.2221L141.581 88.1874L143.255 87.0302L144.168 87.1527V85.9956L141.05 85.8594L140.015 86.7715L138.981 87.8062L137.946 85.7369H136.122L136.013 84.3074L137.81 83.6539L138.981 81.7071L140.015 79.9101L141.186 79.1205L142.085 80.1552L141.05 82.6193L142.085 82.3606L141.186 83.9126L144.29 80.6725L147.135 80.55L147.013 82.2381L147.775 82.4968L146.877 82.8916L146.618 83.9126L147.53 83.7901L147.272 84.1849L148.048 84.0488L148.17 83.6539L149.6 83.9126L150.634 85.6007L149.858 85.2059L149.463 85.9956L150.117 86.6354V85.9956L150.376 87.0302L151.015 86.8941L150.634 89.2221L151.41 90.0117L150.907 90.1342L151.41 90.6651L152.186 89.3582L152.581 90.0117V89.0859L153.234 89.4807L152.84 88.7183L153.997 88.977V87.9287L154.786 88.0649L154.909 85.9956L154.133 83.9126L151.669 81.326L149.994 80.6725L149.858 79.6514L152.186 76.5338L151.546 74.7232L152.445 73.2937L152.186 72.6539H152.962L153.098 70.8432L155.181 71.4967L157.114 69.0189L158.149 62.5387L158.027 57.5015V56.4669L156.978 54.6562L156.338 53.3629L155.821 50.3814L153.997 49.0881H154.65L154.528 48.4346L152.322 47.645L151.941 47.5361L150.907 48.0398L151.152 48.5708L150.376 49.8641L149.994 48.2985L149.722 49.728L148.824 48.176L147.911 48.6933L147.013 48.2985L148.306 44.541L148.565 41.9544L148.701 38.3331L150.907 36.645L151.41 36.9172V36.2638L153.357 35.4878L152.962 34.4395L155.549 33.9358L155.045 34.6982L155.549 34.9704L157.496 32.6424L156.842 32.2476L156.475 32.7514L155.944 32.1115L154.909 28.6127L155.944 26.557L156.08 26.2847L156.597 27.0607L156.842 27.5781L157.373 27.9729V27.8503L157.496 27.4555L158.149 28.2315L157.496 25.7674L157.89 25.2637L156.475 24.2154L156.733 23.4394L157.373 23.3169L157.237 24.0793L159.442 26.0261L159.184 27.5781L160.218 30.3008L161.008 32.7514L160.477 33.7996L161.512 35.8826L163.322 38.3331L169.939 44.1599L169.285 40.9197L168.128 39.8851L169.027 38.8504V38.7143L168.891 38.5917L168.251 37.9383L168.237 37.9247L167.856 37.5571L167.475 37.2984L167.856 35.093L165.909 33.2823L166.44 32.3838L164.357 31.1994L163.976 30.3009L162.941 30.8182L160.613 27.1969L160.872 26.6795L161.512 26.8157L161.008 25.2637L162.029 26.0261L161.376 24.8689L161.907 23.4394L163.459 23.6981L162.669 23.0446L161.376 19.9406L160.736 17.2178L161.648 16.4418L161.008 15.6659L157.632 14.7673L158.149 15.026L156.978 14.8899L157.237 15.802L156.842 15.5433L156.475 16.0607L157.237 13.8552L156.733 13.3379L156.08 12.5619L154.65 12.0309V11.5272L156.339 12.3032V11.2685L157.89 11.3911L158.789 10.8737L158.285 10.4789L159.061 10.6151L158.789 10.0977L158.027 10.2339L157.496 9.58041L156.733 9.19922L156.339 9.44427L156.842 8.68189H156.08L156.597 8.42323L155.549 7.64726ZM91.3318 20.7303H91.9716L92.489 20.1993L91.8355 20.0768L91.3318 20.7303ZM162.669 27.8504L162.301 28.5038L162.941 29.2662L162.669 27.8504ZM169.544 44.6772L169.939 46.3517L170.075 45.3307L169.544 44.6772ZM154.392 45.9842L154.133 46.3517L155.29 47.1414L154.392 45.9842ZM155.29 47.1414L154.786 48.176L155.685 49.9867L157.632 51.8109L158.789 53.7441L162.669 60.9867L162.424 59.3122L163.459 59.1897L164.112 60.0882L163.853 59.3122L161.376 57.5016L160.477 54.9149L161.253 54.1253L162.669 54.7788L160.477 52.832L158.027 50.6401L155.29 47.1414ZM149.082 46.8827V47.7812L149.722 47.2775L149.082 46.8827ZM169.939 57.7602L169.149 58.5362L169.285 60.7417L169.939 57.7602ZM168.891 60.9867L168.387 61.1229V62.2937L168.632 63.0697L168.891 60.9867ZM162.941 61.7764L164.493 66.0511L163.322 66.5685L163.853 67.0858L163.459 67.9979L163.322 68.2566L164.248 69.6725V69.6861L164.493 70.0536L165.664 68.8964L164.248 68.6378L164.112 67.8618L165.011 68.1204L165.405 67.0858L167.733 67.3445V65.2751L169.149 63.3283L168.632 63.7231L167.733 61.8989L167.597 62.9335L166.304 63.3283L162.941 61.7764ZM166.304 69.4138L165.528 69.8086L166.44 70.7071L165.147 70.4484V71.4967V71.8779L165.528 73.1712L165.787 72.9126H165.909L166.181 73.4299L166.304 73.9472L166.563 76.67L165.011 80.55L164.248 80.1552L164.493 79.1205L163.853 79.6515L164.248 83.2592L160.218 84.9473L157.768 88.7184L158.149 89.3582L159.96 88.977V87.6701L160.355 88.1874L162.301 86.1181L163.853 85.4783L163.976 87.2889L165.269 87.6701L165.405 87.0302L166.304 85.4783L165.405 84.9473V84.0488L165.909 84.5661V84.0488L166.563 84.1849L166.181 84.8384L167.733 84.0488L168.128 82.7555L168.632 83.654L168.496 82.2381H169.285L169.027 81.0673H169.285H169.544L169.68 81.8433V82.102V82.4968L169.803 82.2381L170.32 80.4275L169.544 79.5153L169.421 77.9633L168.387 75.7715L169.027 75.2406L168.632 72.5314L166.304 69.4138ZM163.064 86.7716L162.029 86.8941L161.253 88.1874L160.872 87.9288L160.082 89.8756L160.613 89.4808L161.253 90.7741L161.648 90.1342L162.165 88.7184L163.2 88.977L163.595 87.5476L163.064 86.7716ZM158.285 89.4808L156.475 91.1689L157.373 91.9585L156.733 91.5637L157.114 92.5984L158.027 92.081L157.373 91.305L157.768 90.7741L158.53 91.9585L158.285 94.6677L159.184 94.9263V93.7692L159.442 95.185L160.218 94.1504L160.355 90.6652L158.285 89.4808ZM147.135 110.46L145.189 114.353V115.388L146.877 117.212L148.048 110.855L147.135 110.46ZM188.454 118.628L188.059 119.146L188.318 119.404L188.454 118.628ZM150.376 123.679L147.408 124.06L147.53 128.594L146.618 128.471H146.482L146.223 129.247L146.877 130.922L147.135 131.453L147.911 131.97V131.18L148.701 131.316L148.306 133.005L149.6 133.127L150.376 132.215L152.064 133.399L151.805 131.97L153.357 133.399L154.65 133.127L154.786 133.903L154.909 132.868L154.133 133.127L153.602 132.215L154.392 131.711L153.874 131.453H153.098L152.84 132.215L152.186 131.18L151.152 131.575L151.288 132.215L150.117 131.453L149.354 129.887L151.015 126.388L150.253 124.836L150.376 123.679ZM129.138 124.06L126.034 124.591L124.863 126.007L125.761 127.695L126.81 127.94L128.362 126.783L129.396 124.7L129.138 124.06ZM156.733 133.263L155.181 133.767L156.733 134.951V135.591H155.426L155.685 136.626L156.978 138.178L156.842 137.538L157.373 137.402L156.76 135.714L158.149 135.85L157.496 133.903L156.733 133.263ZM147.775 133.658L148.701 134.42V134.557L149.463 135.714L149.994 135.591L150.117 133.903L147.775 133.658ZM153.234 134.162V135.455L153.874 134.815L154.786 135.346L153.234 134.162ZM150.906 136.109L151.41 138.695L153.357 136.885V136.109L152.84 136.503L150.906 136.109ZM155.045 136.245L154.256 138.831L153.874 139.989L154.392 138.831L155.045 137.933V136.245ZM153.493 137.143L152.962 138.954L152.704 139.226L152.186 139.594L153.357 140.778L153.874 140.247L153.602 138.954L154.133 137.402L153.493 137.143ZM146.482 137.933L146.618 139.226L146.114 138.831L146.223 139.73L145.325 140.778L142.479 144.399L144.031 143.106L145.325 140.901L145.583 140.778L147.135 139.485L146.482 137.933ZM157.768 138.178L158.027 139.73L156.733 140.125V141.037H155.944L154.786 142.466L155.045 141.541L154.133 141.173L152.064 143.106L151.546 144.781L152.064 145.053L152.84 143.229L154.392 143.623L154.786 142.725L155.944 143.229L155.685 145.175L157.373 145.557L157.89 145.053L158.149 145.951L158.666 145.053L158.027 143.882L158.53 142.725L159.565 144.263L159.442 143.106L160.218 142.194L159.701 140.125H159.061L159.184 138.831L157.768 138.178ZM155.29 138.314L155.045 138.573L154.786 139.09L155.181 139.349L156.202 138.831L156.08 138.314H155.29ZM94.4358 138.437L93.9184 138.954L94.2996 139.485L94.4358 138.437ZM68.9232 140.778L69.1683 140.901L69.8217 141.418L69.1683 141.173L69.0594 141.813L68.6646 144.005L68.4059 143.487L68.7871 145.815L69.3044 147.64L71.3737 147.762L72.4084 146.469L71.5099 143.623L69.5631 140.778H69.1683H68.9232ZM151.805 145.434L151.669 145.951L152.445 145.434H151.805ZM141.703 146.864L140.151 149.845L139.103 150.226L139.634 150.485L139.239 151.138L138.804 151.275L138.736 151.138L138.64 151.329L138.436 151.397L138.491 151.261L137.184 151.819L136.517 152.037L134.706 154.76L131.466 156.067L130.948 158.381L128.498 158L127.981 157.482L126.415 159.157V160.586L127.191 160.968L126.946 161.893L127.844 162.138H127.191L127.981 162.656L127.45 163.187L128.634 162.792L129.138 165.637L131.983 165.12L132.378 166.277L134.706 164.997L135.877 165.12V165.637L137.551 165.242L137.687 166.536L138.463 166.155L141.05 164.344L140.655 163.949L141.05 164.085L141.703 162.792L140.791 162.261L141.948 160.845L142.343 161.104L143.637 160.069L143.392 158.653L144.549 157.346L144.168 156.829L145.189 157.224L146.359 156.57L144.168 155.536L143.895 155.018L144.549 154.76L142.479 152.827L143.895 152.554L143.133 151.778L145.461 151.002L144.549 150.226L146.754 148.933L144.944 148.552L144.168 148.933L144.29 148.157L143.392 148.661L143.637 147.64L142.479 146.864L141.948 147.762L141.703 146.864ZM95.7155 149.055L95.9878 149.845L96.2464 149.45L95.7155 149.055ZM164.112 149.314L163.595 150.607L164.112 150.226V149.314ZM163.064 150.349L162.029 152.69L162.56 154.624L163.976 155.413L163.2 154.624L162.941 153.33L164.752 153.194L163.459 152.69L164.357 151.901V151.002L162.424 152.69L163.2 151.901L163.064 150.349ZM14.1407 151.901L14.658 152.554L14.3857 152.037L14.1407 151.901ZM98.7106 152.037L99.3504 153.725L102.073 155.536L103.884 158L105.967 159.034L106.607 161.499L108.417 162.792L109.057 163.309L111.657 167.067L116.45 170.307L117.743 171.205L117.62 170.565L118.914 170.96L119.172 170.429L119.935 171.069L120.724 166.794L119.812 165.501L118.26 165.379L117.988 165.896L118.26 165.12L117.484 164.997L117.348 163.445L115.02 162.914L116.055 161.362L115.156 160.845L114.734 161.063L114.448 160.668L114.639 160.709L113.985 160.205L113.468 159.947L113.346 160.45L110.5 158L110.364 158.898L108.417 156.965L107.9 156.57L104.673 154.882L104.919 154.242L103.367 152.826L98.7106 152.037ZM158.027 152.69L155.685 154.76L149.994 155.277L149.463 156.312L148.824 156.067L148.306 156.706V156.965L147.911 158.122L147.53 158L148.048 159.293L147.775 159.034L147.013 160.069V161.24L145.842 162.914L146.114 164.085L147.272 163.827L147.135 166.155L147.013 167.067L148.048 166.931L148.96 166.794L148.565 162.656L149.722 161.893H150.376L149.858 163.309L151.288 163.827L151.015 164.997H151.941L152.186 164.344L153.602 163.827L152.322 162.792L152.962 162.002L150.77 160.314L151.41 160.45L154.786 157.605L151.41 158.517L150.376 159.81L149.6 159.947L148.429 158.898L148.824 157.088L156.475 155.277L158.027 152.69ZM124.999 153.984L124.468 154.378L124.863 155.018L125.394 154.378H125.258L124.999 153.984ZM162.301 154.882L161.907 155.277L162.165 155.794L162.941 155.413L162.301 154.882ZM167.339 155.536L166.181 156.176L167.216 156.067L167.339 155.536ZM162.424 156.434L162.029 157.088L163.322 156.829L163.064 156.57L162.424 156.434ZM99.6091 156.965L101.297 157.728L100.263 157.088V156.965H99.6091ZM167.216 157.605L164.888 158.122L163.064 159.157L162.805 159.947L163.322 159.034L163.853 159.416L166.44 158.517L167.992 158.776L167.216 157.605ZM158.285 158.381L156.842 158.517L156.475 159.293L158.285 158.381ZM155.045 158.517L153.738 158.653L153.874 159.157H153.997L155.045 158.517ZM102.985 159.293L102.454 159.416L103.108 160.205L104.02 160.845L104.143 160.069L102.985 159.293ZM112.951 159.416L113.087 160.205L113.468 159.81L112.951 159.416ZM117.743 159.674L116.967 159.947L117.484 160.069L117.743 160.314V159.674ZM160.872 159.81L159.442 160.586L160.613 161.104L161.648 160.314L160.872 159.81ZM117.62 161.757L117.484 162.138H118.519L117.62 161.757ZM13.2285 162.261L13.4872 162.792L13.7458 163.051L13.2285 162.261ZM106.225 163.554L105.572 163.949L106.865 164.861L106.225 163.554ZM153.997 163.69L153.357 164.725L153.098 165.896L154.133 164.997H153.602L153.997 163.69ZM120.724 164.208L119.295 164.344L118.778 165.12H120.071L120.466 166.155L122.018 166.413L122.276 165.637L121.228 165.501L120.724 164.208ZM153.357 164.208L152.581 164.603L152.445 165.637L152.962 165.501L153.234 164.861L153.357 164.208ZM123.951 165.501L123.828 166.536H124.604L125.122 165.773L123.951 165.501ZM108.812 166.536L109.329 167.325V166.794L108.812 166.536ZM160.613 167.067L159.061 167.325L158.666 167.965L160.613 167.067ZM161.253 167.829L157.373 169.272L156.774 169.708H156.76L155.808 170.402L155.671 170.252L155.249 170.742L155.317 170.756L154.528 171.328L154.256 171.981L153.997 172.499L155.045 172.24L155.944 171.6L157.046 170.811L157.074 170.892L157.06 170.797L161.253 167.829ZM157.373 168.483L156.338 168.741L155.944 169.272L157.114 168.877L157.373 168.483ZM155.944 169.014L155.29 169.272L155.549 169.517L155.944 169.014ZM153.234 169.381L152.445 170.307L150.634 170.824L148.701 170.688L147.775 171.464L147.408 171.723H147.775L150.906 171.205L153.493 169.776L153.234 169.381ZM168.128 169.912L167.216 170.035L166.944 170.429L166.181 170.171L167.08 170.96L168.128 169.912ZM166.181 170.429L165.528 171.205L166.563 170.824L166.181 170.429ZM120.588 170.96L120.071 171.981L118.914 172.376L121.5 172.621L121.364 173.275L124.21 173.547L126.156 173.152L129.914 173.656L136.258 173.411L137.429 173.547L137.17 172.117L134.706 172.376L133.535 171.205L130.567 170.96L129.274 171.859L126.415 171.981L125.122 171.205L120.588 170.96ZM136.653 170.96L133.93 171.464L135.482 171.6L136.653 170.96ZM143.895 171.464L143.514 171.723L144.549 172.24L142.343 172.117L141.581 172.757L142.085 173.275L146.359 171.723L143.895 171.464ZM140.655 172.24L140.151 173.152H141.309L141.581 172.24H140.655ZM138.341 172.499L137.293 172.621L138.463 173.547L139.634 172.621L138.341 172.499ZM147.666 172.499L145.72 173.152L147.53 173.547H147.666L148.429 173.792L149.218 173.275V173.152L147.775 172.499H147.666ZM31.8796 173.656L32.7918 174.445L32.397 173.792L31.8796 173.656ZM34.4663 174.051L34.6024 174.568H34.9972L34.4663 174.051ZM162.805 177.686L162.029 178.08V178.72L162.805 177.686ZM166.835 193.614L164.752 194.39H165.147L166.835 193.614ZM68.6646 204.628L69.3044 204.805L69.1683 204.75L68.6646 204.628ZM69.3044 204.805L69.5631 204.941V204.886L69.3044 204.805ZM69.5631 204.941V205.009H69.6992L69.5631 204.941ZM69.6992 205.009L70.0804 205.131L70.2165 205.172L70.8564 205.39H70.9925L69.6992 205.009Z" fill="#8A93A6"/>
</g>
<defs>
<clipPath id="clip0_187_9045">
<rect width="180" height="180" fill="white"/>
</clipPath>
</defs>
</svg>
