<svg width="180" height="180" viewBox="0 0 180 180" fill="none" xmlns="http://www.w3.org/2000/svg">
<g clip-path="url(#clip0_187_8803)">
<path d="M53.1559 15.4066L52.4591 16.6781L51.4319 17.066L52.5597 18.8834L51.8773 24.6948L53.0697 25.2049L52.7321 25.8873L51.1948 28.4518L49.1404 29.3066V31.0163L47.7755 31.3611L48.1131 32.726L45.3762 33.7532L45.211 33.9256L45.3762 34.7805L45.5486 35.2905L45.3762 35.4629L44.1837 37.0002L44.6938 37.5174L43.1565 38.7098V41.9568L44.8662 42.8116L45.3762 41.7915L45.721 41.4467L46.231 42.3016L45.3762 44.356L42.3017 47.0858L43.5013 50.5051L42.8117 51.5324L45.721 53.0696L48.4579 56.6614L50.6776 61.1079L52.2149 64.3549L56.1514 69.6563L55.8066 71.0212L57.1787 72.9032L59.226 74.7853L68.8016 79.0595L71.8761 81.9616L72.5585 86.2358L72.9033 89.9999L71.8761 95.639L72.5585 100.596L70.8489 110.171L71.7037 112.736L71.5385 113.08L70.8489 114.618L71.8761 122.484L69.6564 131.714L68.6292 132.397L70.3388 137.698L69.484 141.8L70.5112 143L70.1664 143.51L71.5385 142.655L72.3933 143L72.9033 142.483L71.8761 143.855L73.0757 144.365L72.9033 145.219L72.0485 144.709L72.9033 145.564L72.2209 145.219L72.0485 147.612L72.9033 148.466L72.0485 149.321L73.5858 150.176L72.0485 151.886L73.4134 152.403L72.0485 152.568V153.423L72.9033 152.913L72.3933 155.133L71.7037 154.278L70.6836 154.45L71.5385 154.278H70.8489L71.1937 153.423L70.6836 154.113L69.994 153.595L69.3116 153.768L70.5112 154.113L69.994 154.967L69.0961 155.736L69.994 155.133L70.3388 155.987L71.3661 155.822L72.0485 156.842L71.1937 157.532H72.2209L70.8489 158.042L72.5585 157.697L73.7582 158.552L72.9033 158.387L73.5858 159.242L71.1937 158.724L72.7309 159.579L71.8761 160.089L72.5585 160.434L72.2209 161.971L72.7309 161.461L73.7582 162.654L72.5585 162.489L73.0757 163.343L73.5858 164.026L72.2209 163.853L73.4134 164.198L73.5858 165.391L74.103 164.198L74.613 164.881L73.5858 165.391L73.2481 165.563L74.2682 165.908L74.103 167.1L75.123 167.955L74.9578 167.1L75.4678 167.955L74.9578 166.763L76.3227 167.273L74.7854 166.59L75.4678 165.908L75.2954 166.763L76.4951 167.273L76.1503 168.81V167.783L75.9779 168.638L75.8126 167.955H75.4678H75.123H74.613L74.9578 169.665L76.1503 168.982H78.3772L78.8872 170.182L78.0323 171.202L78.2047 170.52L77.1775 170.864L79.232 171.892L79.3972 169.155L81.9617 167.955L83.5062 168.128L82.3065 166.59H81.2793L82.3065 166.418L81.2793 165.391L82.8166 163.171L82.4789 162.826L82.1341 162.144L82.6513 162.826L82.8166 162.999L83.5062 162.826V162.654L83.8438 160.434L86.9255 157.697L86.7531 155.987L84.871 155.65L83.1614 153.423L84.1886 151.376L86.9255 150.521L87.0907 147.439L88.9728 145.729L87.6079 144.875L88.8004 144.537L89.3176 145.392L90.3377 144.709L90 143.51L88.6352 144.365L87.4355 143.51L87.2631 140.09L89.8276 141.118L92.7369 140.435V136.326L93.4194 136.671L92.7369 135.134L95.3015 135.644L97.5212 135.134L100.768 134.451L102.823 133.424L104.705 130.342V128.978L103.333 127.95L103.85 126.241L100.768 123.849L101.285 120.429L101.113 122.656L102.478 124.021L106.069 125.386L110.516 124.876L114.273 120.774L115.3 117.527L118.382 113.935L117.865 112.908L119.402 114.273L115.645 118.547L118.72 115.983L120.602 113.08L121.794 111.371L124.193 109.489L125.214 105.725L124.531 103.505L125.903 101.623L125.048 101.113L126.241 101.45L127.95 99.4031L131.032 97.521H133.252L135.989 95.4738L137.871 95.9838L139.063 95.129V95.9838L141.628 96.1562L141.8 94.9565L144.365 93.9293L144.192 92.5644L147.274 88.6351L147.784 87.7802L148.466 84.5261L150.004 82.9889L152.058 70.1663L152.396 69.4839L152.913 70.6835L153.94 69.9939L159.235 63.6724L162.316 59.7431L162.826 56.6614L161.971 52.2148L161.117 51.0223L157.525 50.1675L154.278 46.4033L150.521 43.6664L144.875 42.984L141.973 41.2743L138.208 43.5012L138.553 41.7915L139.58 41.1019L137.871 41.2743L139.236 40.2471L138.381 38.5446L137.181 39.5647L137.016 38.1998L136.499 38.7098L136.844 38.1998L135.989 38.3722L135.306 37.345L134.962 38.0274L134.789 37.0002L134.451 37.5174L131.887 35.9801L131.715 36.4901L130.005 35.9801L128.805 37.855L129.832 38.1998L128.978 38.5446L128.295 37.6898L126.068 40.0819L126.758 38.3722L123.676 38.7098L127.778 37.855L129.15 34.9529L123.849 34.098L122.649 36.3177V35.1253L121.457 36.1453V34.9529L120.257 36.1453L121.284 33.9256L125.048 30.8511H124.531L125.048 29.6514L122.821 28.4518L121.284 23.1576L120.602 22.6404L120.429 23.4952L118.72 21.2755L113.591 18.711L105.725 18.5386L102.478 15.9741L101.623 17.1737L102.14 14.9468L100.596 13.4096L98.2036 12.0447L97.5212 11.8723H95.8115V9.99023L93.757 8.79778L91.8821 9.1354L91.5373 8.62537L90.5101 7.77054L89.569 7.20304L88.4628 7.59813L84.6986 8.62537L81.6241 7.25333L76.6675 7.94294L75.9779 6.23327L72.9033 5.88846L71.8761 4.17879L71.3661 5.54365L72.3933 5.37844V5.88846L71.5385 5.71606L67.7743 7.59813L68.6292 9.4802L69.1392 9.99023L68.974 11.0175L67.2643 11.6999L66.2371 9.99023L66.5747 9.64543L67.7743 7.94294L66.7471 5.88846L69.1392 4.68882L67.6019 3.83398L63.3277 6.7433L61.108 6.9157L60.7632 7.77054L59.3984 7.59813L58.1987 8.28057L57.0063 9.99023V10.335L57.1787 11.5275L53.7593 13.9196L54.097 15.4641L53.1559 15.4066ZM76.1503 168.982L75.6402 170.01L76.3227 170.182L76.1503 168.982ZM69.0961 155.736L68.974 155.822L68.9883 155.837L69.0961 155.736ZM68.9883 155.837L68.8016 155.987L69.484 156.332L68.9883 155.837ZM44.8662 42.8116L45.211 43.5012L45.3762 42.984L45.721 42.6464L45.3762 42.8116H44.8662ZM91.8821 9.3078L92.5645 11.6999L93.757 11.8723L87.3493 13.5532L92.0473 11.8723L92.2197 11.1899L91.8821 9.3078ZM83.3338 13.582L85.2949 14.2357L87.2631 13.582L85.3811 14.2644L85.2949 14.2357L85.2158 14.2644L83.3338 13.7544L81.2793 14.4368L78.2048 18.0286L79.232 15.6293L81.2793 14.2644L83.3338 13.582ZM90.8549 13.9196L90.5101 16.1465L90 14.2644L90.8549 13.9196ZM111.543 20.9307L111.881 21.9579H110.516L111.543 20.9307ZM125.731 33.0708L123.849 33.2432L124.876 34.098L125.731 33.0708ZM82.4789 33.7532H88.2904L93.9294 36.4901L98.2036 40.9367L102.305 41.1019L104.705 39.0546L107.097 39.5647L108.806 38.0274L111.881 38.1998L112.736 38.7098V39.3923H113.591L117.692 37.5174L113.935 39.3923L111.543 39.5647L110.516 42.474L111.026 39.227L112.226 39.3923L109.834 38.8822H111.371L109.834 38.1998L107.097 39.7371L104.705 39.227L101.795 41.6191L98.886 41.1019L98.2036 41.2743L93.247 43.1564L91.7097 42.3016L88.6352 44.356L88.4628 43.5012L89.3176 43.1564L85.5535 41.6191L85.3811 42.1292L84.0162 40.0819L82.1341 39.3923L78.3772 39.7371L76.3227 42.3016H73.4134L72.5585 43.5012L73.0757 43.8388L71.8761 44.6937L71.8186 44.6218L71.7037 44.6937L70.6836 43.5012L67.6019 43.3288H70.6836L71.8186 44.6218L73.0757 43.8388L72.3933 43.6664L73.4134 42.1292L76.4951 41.9568L78.3772 39.7371L83.6714 39.227L86.5807 41.9568L90 43.3288L91.7097 42.3016L93.0746 42.984L95.6391 42.1292L95.9839 40.9367L98.2036 41.1019L96.6663 40.5919L93.757 36.6625L88.4628 34.098H81.1069L82.4789 33.7532ZM106.924 36.3177L108.979 36.8349L109.144 37.6898L106.924 36.3177ZM120.602 38.1998L122.994 38.3722L122.153 39.3707L122.649 40.0819L122.139 39.3923L122.153 39.3707L121.457 38.3722L121.112 39.5647L120.602 38.1998ZM17.6839 39.7371L17.1738 40.2471L18.3663 41.6191L17.339 42.474H18.3663L19.0487 41.7915L17.6839 39.7371ZM66.5747 41.9568L63.5002 42.984L64.355 42.474L63.845 42.1292L65.0374 42.3016L66.5747 41.9568ZM72.5585 73.5857L73.4134 73.7581L75.9779 75.9778L75.2954 76.8326L74.7854 75.6401L74.2682 76.1502L72.2209 74.9577L72.5585 73.5857ZM79.9144 80.5967L80.4245 83.5061L79.5696 82.134L79.9144 80.5967ZM134.962 82.6512L135.989 84.3609L135.306 84.8709L134.451 84.6985L135.134 83.5061L134.279 83.6713L134.962 82.6512ZM133.934 88.8003L133.762 89.3175L134.617 90.51L133.079 89.1451L132.225 89.4899L133.597 91.5372L132.742 90.6824L132.052 91.0272L132.742 90.3447L131.887 88.9727L133.934 88.8003ZM124.193 95.3014H125.731L125.558 96.1562L124.193 95.3014ZM101.795 105.042L107.952 105.725L100.596 105.559L98.886 110.854V112.226L98.7208 113.935L98.5484 114.165V114.273L98.2036 114.618L97.6936 115.3L96.1563 117.355L96.6663 120.602L95.9839 117.182L97.6936 115.128V114.273L97.866 113.935V112.226H98.5484L98.7208 110.344L99.2308 109.661L100.43 105.559L101.795 105.042ZM92.5645 113.935L91.5373 114.79L90.8549 114.108L92.5645 113.935ZM114.273 118.547L114.108 120.257L113.253 120.092L112.053 122.139V120.602L114.273 118.547ZM107.952 118.892L106.414 119.747L106.752 120.257L105.042 119.919H104.87L107.952 118.892ZM73.7582 140.773L74.9578 141.628L73.9306 141.8L73.7582 140.773ZM71.5385 141.455L72.2209 141.972L71.5385 142.31V141.455ZM69.484 143.682V147.439L70.3388 147.612L71.1937 146.929L70.5112 143.682H69.484ZM72.5585 149.838L71.8761 150.521L72.7309 151.031L72.5585 149.838ZM70.5112 154.623L71.1937 154.795L70.8489 155.477L70.5112 154.623ZM73.9306 154.795H76.8327L74.7854 154.967L73.7582 156.16L73.9306 154.795ZM71.1937 159.069L70.8489 160.262H71.8761L71.1937 159.069ZM74.2682 159.407L74.9578 160.434V159.579L75.8126 161.116L74.2682 160.779V159.407ZM71.3661 160.434L71.5385 161.971H70.3388L71.3661 163.343L71.8761 161.799L71.7037 163.509L72.5585 162.999L71.3661 160.434ZM74.4406 163.343L76.6675 163.509L74.9578 164.026L75.123 164.708L74.4406 163.343ZM70.8489 163.681L71.1937 164.536L71.5385 163.681H70.8489ZM98.886 165.391V166.59L100.94 166.418L100.596 165.735L100.086 166.418L98.886 165.391ZM98.886 166.59L97.5212 167.445L98.2036 167.955L98.7208 167.273L99.4032 167.1L98.886 166.59ZM95.9839 165.563L97.1763 166.418L95.9839 166.245L96.8387 166.59L95.4667 167.273L97.1763 167.1L98.5484 165.735H97.1763L95.9839 165.563ZM82.8166 168.638L80.252 169.327L80.4245 170.692H82.1341L81.2793 172.057L83.1614 172.912L82.6513 173.429L82.3065 172.747L81.9617 173.257L79.9144 172.402L81.2793 173.257L80.4245 173.429L80.252 172.747L78.5424 173.601L86.7531 173.939L89.1452 173.084L84.6986 171.375L82.8166 168.638ZM76.6675 169.327L76.3227 170.52L77.1775 171.037L76.8327 170.52L78.3772 169.327H76.6675ZM73.4134 169.665L74.613 170.52L76.3227 170.864L73.4134 169.665ZM76.3227 170.864L75.4678 171.719L76.4951 172.402L77.1775 171.892L76.6675 172.402L77.8599 171.719L76.3227 170.864ZM80.4245 171.037L79.9144 172.057L81.1069 172.574L80.4245 171.037ZM78.7148 172.057L78.8872 172.574L79.9144 172.747L78.7148 172.057ZM84.0162 173.939L81.6241 174.456L82.8166 175.311L82.4789 174.621H83.5062V175.139L84.871 175.476L83.1614 174.284L84.0162 173.939ZM130.687 174.111L132.907 176.166L132.742 174.621L130.687 174.111Z" fill="#8A93A6"/>
<path d="M138.727 1.33984L138.831 1.54901L140.295 2.28111" fill="#8A93A6"/>
<path d="M138.727 1.33984L138.831 1.54901L140.295 2.28111" stroke="white" stroke-width="0.456" stroke-linejoin="bevel"/>
<path d="M117.241 36.8237H77.1564C72.6334 36.8237 68.9668 39.0114 68.9668 41.7101V72.6722C68.9668 75.3709 72.6334 77.5586 77.1564 77.5586H117.241C121.764 77.5586 125.431 75.3709 125.431 72.6722V41.7101C125.431 39.0114 121.764 36.8237 117.241 36.8237Z" fill="#8A93A6"/>
<path d="M131.578 50.5364H88.6301C83.784 50.5364 79.8555 52.7241 79.8555 55.4227V86.3849C79.8555 89.0835 83.784 91.2712 88.6301 91.2712H131.578C136.424 91.2712 140.353 89.0835 140.353 86.3849V55.4227C140.353 52.7241 136.424 50.5364 131.578 50.5364Z" fill="#8A93A6"/>
<path d="M104.331 74.7351H81.9985C79.4784 74.7351 77.4355 77.226 77.4355 80.2986V115.553C77.4355 118.625 79.4784 121.116 81.9985 121.116H104.331C106.851 121.116 108.894 118.625 108.894 115.553V80.2986C108.894 77.226 106.851 74.7351 104.331 74.7351Z" fill="#8A93A6"/>
<path d="M107.738 19.8843H68.5123C64.0861 19.8843 60.498 22.3751 60.498 25.4478V60.7017C60.498 63.7744 64.0861 66.2652 68.5123 66.2652H107.738C112.164 66.2652 115.752 63.7744 115.752 60.7017V25.4478C115.752 22.3751 112.164 19.8843 107.738 19.8843Z" fill="#8A93A6"/>
<path d="M122.379 50.1331H85.7298C81.5945 50.1331 78.2422 52.6239 78.2422 55.6965V90.9505C78.2422 94.0231 81.5945 96.514 85.7298 96.514H122.379C126.514 96.514 129.866 94.0231 129.866 90.9505V55.6965C129.866 52.6239 126.514 50.1331 122.379 50.1331Z" fill="#8A93A6"/>
<path d="M90.3206 11.4148H64.5518C61.6442 11.4148 59.2871 13.8406 59.2871 16.8331V51.1677C59.2871 54.1602 61.6442 56.586 64.5518 56.586H90.3206C93.2282 56.586 95.5852 54.1602 95.5852 51.1677V16.8331C95.5852 13.8406 93.2282 11.4148 90.3206 11.4148Z" fill="#8A93A6"/>
<path d="M81.216 127.973H74.0582C73.2505 127.973 72.5957 128.817 72.5957 129.859V141.815C72.5957 142.857 73.2505 143.702 74.0582 143.702H81.216C82.0237 143.702 82.6785 142.857 82.6785 141.815V129.859C82.6785 128.817 82.0237 127.973 81.216 127.973Z" fill="#8A93A6"/>
<path d="M78.4019 149.348H74.2507C73.7821 149.348 73.4023 150.193 73.4023 151.235V163.191C73.4023 164.233 73.7821 165.077 74.2507 165.077H78.4019C78.8704 165.077 79.2502 164.233 79.2502 163.191V151.235C79.2502 150.193 78.8704 149.348 78.4019 149.348Z" fill="#8A93A6"/>
</g>
<defs>
<clipPath id="clip0_187_8803">
<rect width="180" height="180" fill="white"/>
</clipPath>
</defs>
</svg>
