<svg width="180" height="173" viewBox="0 0 180 173" fill="none" xmlns="http://www.w3.org/2000/svg">
<path fill-rule="evenodd" clip-rule="evenodd" d="M108.88 1.26419L107.945 2.21007L108.66 2.92525L108.88 3.14441V1.26419ZM108.88 3.61734L107.472 4.11336L108.66 4.80547L108.88 3.61734ZM103.493 4.33252L102.766 7.40085L104.185 5.52063L103.493 4.33252ZM122.064 8.34673L121.591 11.8534L119.25 13.7336V14.9217L118.062 19.1551L119.942 20.3432L119.469 22.4426H120.876L119.469 22.6848L118.996 24.565L121.13 23.8499L120.403 25.5109L122.779 24.565L121.372 23.3885L122.779 22.9155L121.372 22.6848L122.537 22.4426L121.372 21.5083H122.537L121.13 20.0894L122.318 19.8703L122.064 18.463L121.845 16.329L123.944 10.2269L122.064 8.34673ZM86.0748 9.50024V10.919H84.8867L85.3596 12.3263L86.2939 12.1072L87.482 11.8534L86.2939 13.0415L88.8893 13.9874L90.7695 11.1613L89.3623 9.97318L88.1742 10.919L87.955 9.50024L87.7012 11.3805L86.2939 9.97318L86.0748 9.50024ZM83.9408 11.1613V14.9217L82.7873 11.8534L82.3143 13.5145L81.1262 12.3263L82.3143 11.6342L80.1803 12.3263L81.1262 17.0557L83.0064 15.1755V16.329L83.7216 15.6369L84.4137 16.5828L81.3685 17.7478L81.5992 18.9359L83.9408 18.2092L82.0606 19.1551L83.2487 19.8703L81.3685 19.3973L82.5335 21.2776L83.7216 22.9155L85.6018 16.5828L86.2939 16.1098L87.482 15.6369L86.2939 14.2296V14.2066L85.1289 12.5686L84.6675 13.5145L83.9408 11.1613ZM87.482 15.8676L86.2939 16.329L87.0091 17.2749L87.482 15.8676ZM88.4279 17.0557L87.0091 17.7478V19.8703L88.1742 19.3973L88.4279 20.5624L89.3623 19.1551L88.4279 17.0557ZM122.779 25.038L121.13 25.5109L119.942 26.699L120.899 27.172L119.942 28.3255L121.372 27.8641L120.657 31.6245L121.845 32.5589L123.252 31.3938L125.352 33.5047L128.893 31.6245L124.198 29.5136L122.779 27.3911V25.038ZM140.889 30.2057L134.061 31.8667V33.274L136.656 34.6928L135.722 35.881L136.195 37.0345L134.061 35.6272L133.369 38.2226L131.246 39.6299V41.0487L129.366 41.983L128.651 39.8606L129.366 38.6955L128.651 39.1685L128.178 42.2022L127.486 41.2678L124.417 45.5243L125.605 46.2164L123.944 47.1507L124.66 49.5039L122.779 50.4497L120.657 49.0309L122.318 46.9315L121.591 45.9972L116.643 45.5243L118.523 46.4586L121.591 54.4524L118.304 53.2643L116.896 55.8597L116.181 57.5208L116.031 58.109L116.896 59.401L118.062 61.0274H117.369H114.763L114.301 61.9733L114.763 60.8083L112.19 60.3353L111.948 61.9733L114.763 62.9076L114.301 65.0416L109.595 63.3806L107.945 60.3353L108.407 58.4551L105.373 57.7399L106.307 57.0478L103.239 54.9254L114.301 56.1135L115.235 54.4524L116.424 51.6379L113.436 49.3539L113.355 49.2847L112.882 48.8118L106.065 46.4586L103.954 46.6893L103.493 48.3388L103.712 46.4586L102.074 46.6893L101.613 45.5243H103.02L101.613 44.8091L100.667 46.4586L99.2363 45.5243L98.5442 46.4586L97.3561 45.2705L96.8831 44.8091H99.0056L99.9515 43.3903L97.1254 42.2022L95.9373 43.8632L96.664 41.983L95.4759 41.5101L95.0029 43.8632L94.3108 44.3362V42.2022L92.9035 45.5243L93.3649 42.6751L91.9577 42.2022L90.7695 45.9972L88.451 44.5323L88.6702 45.9972L89.1431 46.9315L87.955 45.9972L86.2939 48.3388L86.0748 48.5695L86.2939 48.0966L86.7669 45.9972L86.2939 46.9315L85.821 48.0966V46.6893L84.8867 47.4045L85.6018 48.8118L83.9408 47.8774L83.2487 50.692L81.5992 51.1649L83.4794 51.6379H81.3685V53.7372L80.9071 52.0993L79.7189 52.7914L80.6533 53.2643H79.246L80.4341 54.4524L78.3001 55.3983L79.7189 56.0904L76.8929 56.5749L77.585 57.0478L75.9585 59.1472L77.585 58.928L75.2433 59.6201L75.9585 60.566L75.2433 60.0931L74.0783 62.4462H75.4856L72.671 63.6343L74.0783 63.3806L72.671 64.3265L73.3631 65.2608L72.1981 65.7337L71.9443 64.5687L69.1297 67.637L70.537 68.11L72.4173 66.4489L71.4829 68.8021L69.6027 69.0443L69.372 67.8562L67.4687 68.3291L67.2495 70.4631L66.0614 69.5172L66.9958 70.9245L64.6541 69.5172L66.3037 70.6823L63.2353 70.4631L64.4234 72.5625L63.7083 71.6166L63.2353 72.3433L62.301 71.8704L62.7739 72.5625L60.8937 71.6166V72.5625L63.4891 73.2777L60.8937 72.8047L60.2016 73.7506L61.6089 74.4427L59.9478 74.212L61.1359 74.6849L60.2016 75.6308H62.5432L63.0162 74.9157L63.962 76.0922L64.6541 74.9157V75.85L63.2353 77.0381L62.7739 75.85L59.7287 75.6308L60.663 76.5652H59.4749L59.9478 77.511L60.8937 77.0381L59.4749 78.2262L59.7287 79.1606L60.663 78.2262L59.7287 80.1064L63.0162 78.4454L59.0135 81.2715L59.4749 82.2058L61.3551 81.5137L59.7287 82.921L61.1359 83.3939L60.4208 84.086L59.2557 83.1517L59.0135 84.8012L61.1359 87.3735H63.4891L66.5344 84.086L68.1839 84.559L69.1297 81.5137L69.3028 85.3549H69.2566L69.372 87.4081L70.2602 87.2005C70.2602 87.2005 70.1164 87.9351 70.0179 88.4117L69.8449 89.0346L70.3409 88.2963C70.545 87.9931 70.7331 87.6734 70.7331 87.6734L70.0872 89.7036L70.0641 89.7498L71.9212 94.1331L71.01 94.9752L70.7908 95.1482V95.1712L71.2291 98.6779L74.1014 98.9547L75.4625 96.1402L77.8849 96.5555L79.742 91.63L79.6382 90.4418L79.6152 90.2227L79.4883 87.8926L79.8343 87.8465H80.4341L79.6959 87.4773L79.1191 87.1544L79.742 87.0275L81.5992 86.6814L81.6684 86.2662L81.8876 85.4241L82.3144 86.6814L82.9257 86.0701L83.9754 85.1242L83.8947 85.078L83.9408 85.0319L83.3987 84.7089L83.3064 84.6282H83.2833L82.8335 84.3052L82.9257 84.236L83.0295 84.1898L83.2026 84.063L84.6675 83.1517L83.5486 81.3637L83.4563 81.1907L82.8104 80.1064L81.1493 79.6104L82.3144 71.2244L82.8796 71.7204L83.2487 72.0895L86.2478 69.5403L86.294 69.4942L87.4821 68.3291L87.5051 68.2599L88.8893 65.976L88.8663 65.9298L88.2203 62.7692L88.6241 63.0115L88.6702 63.0345L89.1431 63.3806L89.0393 62.5154L88.9124 61.3042L89.2123 61.4773L90.0544 61.9963V61.9733H90.0775L90.1005 61.8003L90.1351 61.731V61.6734L90.3774 60.566L93.1227 60.8082L94.7838 63.6343L88.1972 72.0665L88.1742 72.0895L89.3623 76.8189L88.8894 80.1064L91.0233 81.5137L91.1964 81.3868L91.2194 81.3637L91.2425 81.3407L91.9346 80.9024L91.8885 81.3407L91.7154 82.921L91.7616 82.8979L101.832 78.6992L102.074 80.1064L105.373 81.0408L101.359 82.2058L101.14 83.5439V83.5669L99.0056 83.3939L98.5903 83.3478H98.5673L96.8832 83.1517L93.5149 84.732L92.8228 85.055L93.5726 88.3656L95.2452 88.4117L95.0029 92.2067L94.4146 92.7258L93.6879 93.1872L92.6036 91.953L92.5344 91.8607L91.4847 90.4419L89.6161 91.3877L89.4315 91.8837L89.3623 92.0337L89.3161 92.1721L88.105 95.1482L88.5433 98.4587L88.7163 99.543L88.8893 101.031H87.4821L88.5433 98.4587L87.4821 100.558L86.294 101.031V102.219L87.2398 101.977L86.3747 102.669H86.3401H86.2017L86.1671 102.784L84.8867 103.626L86.0748 102.219L83.7216 103.165L81.8414 101.285L74.7704 103.857L74.5512 105.507L71.2522 102.219L66.5344 103.384L67.2495 101.746H65.1155L63.962 99.6238L64.6541 96.5555L67.9416 94.2023L66.3037 93.0373L67.9416 89.5075L63.4891 91.157L61.3551 99.6238L62.301 99.4046L62.7739 100.812L61.828 101.285L64.1812 104.572L61.828 102.911L61.1359 104.792L60.2016 103.384H58.3214L58.7828 104.792L55.4722 103.626L54.0649 104.572L54.7801 106.453L53.3728 107.145L52.6577 104.572L50.3045 107.86L51.4926 109.048H48.6665L50.3045 110.213L44.1909 110.455L43.718 113.028L42.7836 113.281L39.0232 114.908L35.2397 112.093V116.315L32.1944 115.854L31.7215 114.216H27.4997L28.6532 115.623L27.4997 115.162V117.042L31.7215 119.637L32.1944 123.617L33.6017 124.805L32.6674 126.904L32.8865 127.4L29.599 134.448L16.4144 129.28L15.2494 127.619L10.5546 128.346L11.489 131.634L8.42064 138.682L5.13314 142.442H6.54042L5.35231 143.849L6.79419 144.564H6.32126L4.41797 148.798L10.0817 150.205L12.1811 155.846L16.1953 154.692L22.2973 157.034L24.8927 154.911L27.0037 155.154L28.1917 152.812L29.599 152.339L30.5334 152.085L30.072 151.393L29.3799 150.459L30.072 148.325L30.7871 147.863L34.2938 144.795L40.6612 143.388V139.87L42.0684 138.439L44.1909 137.966L49.3586 141.035L56.8795 137.274L60.4207 139.627L62.0818 145.51L74.0783 155.154L75.4856 159.387L73.6053 162.202L74.7704 162.675L76.4199 159.606L78.3001 158.914L76.4199 156.319L77.5849 153.966L80.1803 154.438L81.5991 156.319L82.0605 155.154L75.0126 149.963L75.7047 148.556L71.9443 147.61L69.372 141.969L66.3036 139.397L66.0614 134.921L69.6027 133.987L69.868 135.094L70.3178 137.643L72.175 135.89L75.4856 142.661L77.781 143.111L79.8343 144.91L80.0419 145.36L83.0987 146.768L85.1058 149.017L84.1484 154.196L85.8556 156.192L86.2939 156.792V156.619L88.301 159.318L89.5122 158.995L88.5202 159.802L89.5122 161.417L95.6258 161.959L94.7261 162.605L90.3081 162.005L89.6045 163.124L91.2194 166.885L92.5805 166.02L93.5726 168.223L94.0109 166.735L95.6258 167.923L94.38 164.116L96.5832 164.509L95.0721 162.871L96.6409 162.202L98.0482 163.47L98.1404 161.809L93.6187 159.606L94.9337 158.891L94.8299 157.703L95.868 158.107L93.6187 153.746L94.6338 153.273L97.4714 155.454L96.8831 154.046L98.6941 154.542L96.6409 152.535L100.644 151.416L103.285 151.947V151.912L105.373 152.339L103.712 154.692L107.253 150.932L111.233 150.459L108.464 147.171L107.253 145.706L106.353 145.926L109.156 141.704L109.249 139.005L109.353 136.455L109.768 137.147L109.825 137.274L111.475 136.328L111.002 132.799L111.383 133.537V133.56L111.475 133.733L111.798 133.122L113.136 131.634L113.609 129.753L116.424 128.092L117.831 129.28L115.235 129.5L116.643 129.753L116.181 130.445L120.876 129.973L121.13 131.161L118.523 133.26L120.184 132.799L121.13 135.867L122.779 136.086L128.893 131.161L126.067 132.107H124.66L123.01 130.445L124.417 127.873L124.198 129.5L126.067 126.904L133.588 122.682L132.653 125.278L130.531 125.739L132.18 126.927L130.992 130.445L128.893 131.853L138.663 135.417L143.635 135.694L146.322 135.809C147.38 135.914 148.433 135.954 149.495 136.005L153.001 135.855L154.974 135.417C155.663 135.325 156.347 135.241 157.039 135.163C158.252 135.051 159.093 135 160.211 135.233C160.876 135.171 161.347 135.327 161.964 135.475H162.956L164.848 135.752L163.971 135.198L163.337 134.806L158.78 131.38L157.362 127.377L157.119 128.808L154.074 125.739L154.293 121.264L157.362 119.637L157.592 116.569L160.88 112.808L161.791 112.485V111.666L161.007 110.674L160.107 109.89L159.715 108.183L159.126 105.91L155.539 102.842L154.743 100.339V99.2547L156.427 97.6628L157.708 96.7746L159.023 95.6903L160.799 94.3061L163.083 93.5102L165.159 93.0142L166.347 92.299L168.147 92.1952L168.839 91.4108L169.531 91.2147L169.831 91.9068L170.915 92.1029L172.011 91.307L172.403 91.803L172.53 91.1339L171.469 89.0346L172.53 91.1109L172.703 90.1189L173.695 90.315L174.883 89.1384L175.402 88.4463L174.583 86.6583L174.087 86.3584L173.499 87.0505L172.703 86.6583L171.815 87.1544L171.411 86.7622L170.523 86.6583L170.627 85.7701L167.858 84.9742L166.636 84.8819L166.244 84.4782V84.063L165.459 83.267L165.159 79.7027L164.663 79.0106L163.579 78.9183L162.887 79.5066L162.091 81.1907L161.399 82.3788H160.603L160.211 82.6787L156.819 81.0984L155.931 80.1987L156.231 79.2182L158.527 77.0381L159.126 75.1348L158.527 73.8429L157.615 73.4507H155.931L154.939 72.6547L154.743 70.2785L155.239 68.8943L153.255 63.6343L151.975 60.1623L150.487 57.4746L149.668 56.6787V55.6867L149.875 55.2945L144.131 47.3468L145.319 42.5828L146.207 37.3343L145.711 33.447L145.215 33.1586L142.124 30.7247L140.197 30.4594L140.889 30.2057ZM130.773 31.6245L131.488 33.0318H131.708H133.588L133.369 32.0859L133.126 31.8667H132.653L130.773 31.6245ZM28.434 40.1028L27.7188 42.4559L27.4997 40.5757L26.5307 42.2022L25.8386 41.0487L25.5964 42.2022L24.6505 41.5101L27.7188 44.0824H26.0578L26.7729 45.2705L23.7162 43.621L25.8386 47.6237L23.0125 48.0966L25.1234 49.0309L26.0578 50.9112L27.0037 52.7914L30.072 53.0452L33.6017 53.2643L36.4278 52.0993L35.9549 51.1649L37.1199 51.6379L36.9007 47.1507L38.308 46.6893L36.647 46.9315L36.4278 45.0283L35.2397 46.2164L33.3595 44.8091L32.4136 46.4586L32.6674 44.3362L31.0063 45.2705L30.7872 44.0824L30.5334 43.3903L27.9611 45.5243L29.3799 42.9289L28.434 40.1028ZM122.537 40.1028L122.064 41.983L123.471 42.6751L124.417 40.7949L122.537 40.1028ZM130.531 41.5101L129.366 44.5553L133.126 51.3841L135.722 49.7577L136.414 45.7434L135.941 49.9768L133.126 51.3841L129.112 44.5553L130.531 41.5101ZM139.955 41.5101L140.197 41.983H140.174L139.955 41.5101ZM83.0064 47.4045L82.0606 49.2847L83.7216 47.8774L83.0064 47.4045ZM97.8175 47.4045L97.3561 49.5039H95.7181L97.8175 47.4045ZM79.9612 49.2847L78.7731 50.4497L79.4652 50.9112L79.9612 49.2847ZM80.4341 49.5039L79.4652 51.857L80.6533 50.9112L80.4341 49.5039ZM104.185 50.219L104.9 53.0452L103.954 53.7372L104.185 50.219ZM94.7838 52.33H97.3561L96.8831 53.2643L94.7838 52.33ZM102.766 58.2129L103.239 59.401L102.074 58.928L102.766 58.2129ZM120.438 63.1614L122.318 65.2608L128.42 67.1641V67.3948L122.318 65.2608L120.438 63.3806V63.1614ZM97.1254 65.0416L99.4785 66.4489L97.3561 66.2297L97.1254 65.0416ZM109.595 65.7337L111.729 66.9218H110.541L111.002 69.0443L109.595 65.7337ZM149.126 65.7337L151.698 68.8021L151.225 70.2093L151.652 70.4862L151.698 70.4631L151.998 70.6823L152.413 70.9245L153.601 70.4631L152.886 71.1552L154.293 72.3433L151.998 70.6823L151.652 70.4862L150.291 70.9245L151.225 69.5172H149.818L150.291 67.8562L149.126 65.7337ZM108.66 67.3948L109.595 68.3291H108.407L108.66 67.3948ZM97.5983 68.5829L101.613 72.5625L99.6977 71.3975L99.9515 73.2777H102.305L102.074 71.6166L103.239 72.0896V74.3158L103.089 74.5927L100.886 76.5652L101.901 76.7959L101.855 76.8651L100.171 77.2803L99.0056 75.6308L100.424 76.0922L101.832 74.6849L98.7634 72.5625L99.2363 70.9245L97.5983 68.5829ZM110.783 69.275L113.136 70.4631L115.235 74.6849L114.543 76.0922L112.663 75.85L113.828 75.1579L111.002 73.0354L109.826 70.6823L111.475 72.3433L110.541 70.2093L112.19 72.0896L112.882 71.1552L110.783 69.275ZM96.191 70.4631L96.664 73.0354L96.8831 71.1552L97.8175 72.0896L97.1254 70.9245L98.2904 71.3975L96.191 74.6849V77.2803L97.5983 76.5652L97.1254 78.4454L95.4759 76.5652L96.4102 73.2777L96.191 71.3975L95.2452 70.9245L96.191 70.4631ZM102.305 73.4968L101.359 73.9698L102.074 74.6849L102.547 73.4968H102.305ZM92.6498 73.9698H94.53V75.1579L92.9035 75.6308V77.2803L94.53 75.6308L93.3649 77.511L94.3108 78.4454L92.9035 77.2803V77.511L92.6498 73.9698ZM105.373 74.4427L109.595 77.7533L107.253 81.0408L103.712 76.5652L105.373 74.4427ZM152.667 74.6849L153.14 75.1579L151.225 77.7533L152.667 74.6849ZM118.523 77.0381L118.996 77.7533L117.589 77.9724L118.523 77.0381ZM37.3621 78.4454L35.2397 79.8527L35.0205 80.5794L36.174 80.3256L37.3621 78.4454ZM39.7153 78.9183L38.5503 81.7329L37.1199 81.0408L36.9007 83.8669L35.0205 84.559L37.1199 85.4933L33.8324 89.7498L35.4819 88.3425L36.9007 87.4081L37.1199 88.8154L36.4278 88.3425L34.5476 91.8607L34.7668 92.795L35.0205 92.1029L38.781 92.795L36.9007 94.2023L37.3621 96.0825L38.308 95.6096L36.9007 97.9858L37.6159 98.9317L34.2938 98.2165L32.6674 99.4046H34.2938L34.0746 100.812L30.3142 102.219L33.8324 105.264L36.4278 104.572L34.2938 106.199L31.7215 105.264L27.2459 108.079L31.9522 109.048L32.8865 107.618L40.4305 109.74L43.9487 109.267L44.1909 108.575L41.8378 107.387H43.2566L45.8289 104.792L45.356 102.911L42.7836 102.219H42.5414L43.2566 100.097V99.866L43.0028 99.4046L41.8378 98.9317L43.4757 99.1508L43.718 97.9858L41.8378 95.6096L41.5955 90.2227L38.5503 88.3425L41.1226 88.8154L39.7153 87.8695L41.5955 87.6273L44.1909 84.559L39.2424 83.1517L43.2566 80.1064L39.7153 78.9183ZM120.657 80.5794L119.469 81.5137L120.403 81.7329L122.537 82.921L121.845 85.0319L118.523 83.1517L120.657 83.3939L118.996 81.2715L120.657 80.5794ZM35.4819 81.2715L35.7126 83.8669L36.174 82.921L35.4819 81.2715ZM131.708 82.921L131.961 87.4081L130.531 84.086L131.708 82.921ZM148.41 83.3939L148.883 84.086L149.598 83.3939L145.596 88.5617V89.5075L145.365 90.9148L146.53 91.8607L147.937 90.4419L147.464 93.0373L149.345 92.795L147.464 94.4561L147.937 93.5102L145.123 91.63L145.596 87.6273L144.65 86.6814L141.362 85.4933L138.767 85.7471L136.979 87.0044L135.722 88.1002L135.549 88.0426L135.468 88.1002L132.653 86.9352L135.549 88.0426L136.979 87.0044L138.767 85.4933L141.582 85.2742L144.65 86.6814L145.365 87.1544L145.123 85.9663L146.311 86.4392L148.41 84.559V83.3939ZM73.3631 84.086L75.2433 84.3398L74.5397 86.4392L71.4829 87.6273L71.9443 85.4933L73.3631 85.7471V84.086ZM35.2397 85.2742L34.0746 86.22H35.4819L35.2397 85.2742ZM100.886 85.4933V87.6273L99.4785 85.9663L100.886 85.4933ZM91.0233 85.9663L90.3081 86.22L91.0233 87.1544L92.1884 86.4392L91.0233 85.9663ZM107.945 86.22L109.133 87.1544L107.253 87.4081L107.945 86.22ZM167.709 87.6273L169.116 88.5617L168.17 89.5075L167.709 87.6273ZM89.8352 87.8695L90.3081 89.9805L92.6498 87.8695H89.8352ZM29.599 88.3425L27.2459 89.5075L28.6532 90.2227L27.2459 91.3877L24.1776 89.9805L24.6505 91.8607L22.7703 92.5759L25.1234 94.4561L22.0782 95.8633L24.6505 96.5555L20.6709 96.3363L21.8359 97.2706L20.198 97.7436L21.8359 98.4587L20.198 98.6779L21.8359 98.9317L20.6709 99.6238L24.8927 99.866L28.9069 100.097L31.0063 93.7409L33.3595 93.0373L33.1403 89.7498H30.5334L31.7215 89.2768L31.0063 88.3425L29.8413 89.5075L29.599 88.3425ZM84.4137 89.9805L82.5335 91.3877L82.7873 93.268L84.4137 89.9805ZM64.4234 91.3877L66.0614 91.8607L64.6541 92.1029L64.8964 93.5102L64.4234 92.3221L63.2353 93.0373L64.4234 91.3877ZM70.537 95.8633L69.8449 97.5244L69.372 96.0825L67.4687 96.7977L69.1297 101.504V99.866L71.01 97.7436L70.537 95.8633ZM65.5885 97.2706L65.1155 98.6779L66.7766 99.1508V97.2706H65.5885ZM145.596 100.558L144.177 103.211L144.627 105.357L144.673 105.53L146.53 106.925L145.123 108.102V108.333L144.65 114.216L144.892 108.333L145.123 106.672L144.673 105.53L144.65 105.507L144.627 105.357L143.958 103.626L144.177 103.211L144.177 103.165L145.596 100.558ZM72.8902 101.746L71.7251 102.438L72.8902 102.911V101.746ZM130.773 105.264L131.015 105.737L131.246 106.453L130.992 105.737L130.773 105.264ZM150.533 105.98L150.071 106.222L149.345 106.453L150.071 106.199L150.533 105.98ZM141.362 111.62L142.77 112.555V114.435L142.297 118.449L140.174 119.637L139.955 117.976H141.362L140.889 115.623L142.078 115.381L142.551 113.281L141.362 111.62ZM113.355 117.042L112.663 117.284H111.256L110.541 117.503L111.256 117.261H112.663L113.355 117.042ZM38.5503 117.503L38.0773 118.449V118.922L37.8351 119.383L38.0542 118.922V118.449L38.5503 117.503ZM109.826 117.503L109.353 117.757H107.945L107.253 117.976L107.945 117.734H109.353L109.826 117.503ZM113.355 117.734L122.064 121.044L123.252 120.329L124.198 124.563L121.13 125.278L120.657 127.377L118.062 128.784L120.184 127.377L120.657 124.805L123.252 124.332V121.737L113.355 117.734ZM105.834 117.976L105.373 118.23H103.954L103.239 118.449L103.954 118.195H105.373L105.834 117.976ZM37.8351 119.856L37.6159 120.329V121.044L37.1199 121.99L37.5928 121.044V120.329L37.8351 119.856ZM57.8254 142.684L55.2531 144.564L55.9452 147.863L57.8254 145.983V142.684ZM56.6603 148.798L53.592 149.513L53.3728 156.572L56.8795 155.846L57.8254 151.624L56.6603 148.798ZM39.4961 149.986L36.9007 150.678L38.308 152.085L39.9575 151.151L39.4961 149.986ZM95.7181 158.914L94.53 159.387L99.0056 162.202L98.2904 160.102L95.7181 158.914ZM87.955 161.048L87.2398 161.982L88.6471 162.202L87.955 161.048ZM73.6054 161.267L64.4234 161.509L64.8964 163.147L71.4829 166.689L73.6054 161.267ZM97.1254 170.691V172.099L100.667 172.791L104.9 172.329L105.373 171.164L103.712 172.099L97.1254 170.691ZM69.8911 170.714L70.1679 171.66L71.1368 171.753L71.033 170.818L69.8911 170.714Z" fill="#8A93A6"/>
<path d="M151.363 78.4583H129.367C128.891 78.4583 128.506 79.9498 128.506 81.7898V117.264C128.506 119.104 128.891 120.596 129.367 120.596H151.363C151.838 120.596 152.224 119.104 152.224 117.264V81.7898C152.224 79.9498 151.838 78.4583 151.363 78.4583Z" fill="#8A93A6"/>
<path d="M125.708 82.7476H105.817C105.388 82.7476 105.039 84.2391 105.039 86.0791V121.553C105.039 123.393 105.388 124.885 105.817 124.885H125.708C126.138 124.885 126.486 123.393 126.486 121.553V86.0791C126.486 84.2391 126.138 82.7476 125.708 82.7476Z" fill="#8A93A6"/>
<path d="M137.819 74.4211H117.929C117.499 74.4211 117.15 75.9127 117.15 77.7526V113.227C117.15 115.067 117.499 116.559 117.929 116.559H137.819C138.249 116.559 138.598 115.067 138.598 113.227V77.7526C138.598 75.9127 138.249 74.4211 137.819 74.4211Z" fill="#8A93A6"/>
<path d="M152.454 64.3281H132.564C132.134 64.3281 131.785 65.8197 131.785 67.6596V103.134C131.785 104.974 132.134 106.466 132.564 106.466H152.454C152.884 106.466 153.232 104.974 153.232 103.134V67.6596C153.232 65.8197 152.884 64.3281 152.454 64.3281Z" fill="#8A93A6"/>
<path d="M140.595 61.8052H120.704C120.274 61.8052 119.926 63.2967 119.926 65.1367V100.611C119.926 102.451 120.274 103.943 120.704 103.943H140.595C141.024 103.943 141.373 102.451 141.373 100.611V65.1367C141.373 63.2967 141.024 61.8052 140.595 61.8052Z" fill="#8A93A6"/>
<path d="M141.319 42.6284H127.045C126.737 42.6284 126.486 44.12 126.486 45.9599V81.4343C126.486 83.2743 126.737 84.7658 127.045 84.7658H141.319C141.628 84.7658 141.878 83.2743 141.878 81.4343V45.9599C141.878 44.12 141.628 42.6284 141.319 42.6284Z" fill="#8A93A6"/>
<path d="M106.682 100.915H97.0885C96.881 100.915 96.7129 102.076 96.7129 103.508V131.123C96.7129 132.555 96.881 133.716 97.0885 133.716H106.682C106.89 133.716 107.058 132.555 107.058 131.123V103.508C107.058 102.076 106.89 100.915 106.682 100.915Z" fill="#8A93A6"/>
<path d="M123.266 112.017H118.352C118.246 112.017 118.16 112.607 118.16 113.334V127.353C118.16 128.081 118.246 128.67 118.352 128.67H123.266C123.373 128.67 123.459 128.081 123.459 127.353V113.334C123.459 112.607 123.373 112.017 123.266 112.017Z" fill="#8A93A6"/>
<path d="M100.054 46.6655H95.1395C95.0333 46.6655 94.9473 47.255 94.9473 47.9823V62.0019C94.9473 62.7291 95.0333 63.3186 95.1395 63.3186H100.054C100.16 63.3186 100.246 62.7291 100.246 62.0019V47.9823C100.246 47.255 100.16 46.6655 100.054 46.6655Z" fill="#8A93A6"/>
<path d="M76.0829 74.6736H71.1688C71.0626 74.6736 70.9766 75.2631 70.9766 75.9903V90.0099C70.9766 90.7372 71.0626 91.3267 71.1688 91.3267H76.0829C76.1891 91.3267 76.2751 90.7372 76.2751 90.0099V75.9903C76.2751 75.2631 76.1891 74.6736 76.0829 74.6736Z" fill="#8A93A6"/>
<path d="M169.44 85.7756H164.526C164.42 85.7756 164.334 85.9542 164.334 86.1744V90.4234C164.334 90.6437 164.42 90.8222 164.526 90.8222H169.44C169.546 90.8222 169.633 90.6437 169.633 90.4234V86.1744C169.633 85.9542 169.546 85.7756 169.44 85.7756Z" fill="#8A93A6"/>
<path d="M120.262 66.3469H109.498C109.265 66.3469 109.076 66.6952 109.076 67.1248V75.4097C109.076 75.8393 109.265 76.1876 109.498 76.1876H120.262C120.494 76.1876 120.683 75.8393 120.683 75.4097V67.1248C120.683 66.6952 120.494 66.3469 120.262 66.3469Z" fill="#8A93A6"/>
<path d="M112.128 64.833H106.278C106.151 64.833 106.049 65.0743 106.049 65.3718V71.1071C106.049 71.4047 106.151 71.6459 106.278 71.6459H112.128C112.254 71.6459 112.357 71.4047 112.357 71.1071V65.3718C112.357 65.0743 112.254 64.833 112.128 64.833Z" fill="#8A93A6"/>
<path d="M102.834 68.6177H91.6019C91.359 68.6177 91.1621 68.9392 91.1621 69.3358V76.9832C91.1621 77.3799 91.359 77.7014 91.6019 77.7014H102.834C103.077 77.7014 103.274 77.3799 103.274 76.9832V69.3358C103.274 68.9392 103.077 68.6177 102.834 68.6177Z" fill="#8A93A6"/>
<path d="M105.232 58.02H97.2762C97.1042 58.02 96.9648 58.404 96.9648 58.8778V68.0119C96.9648 68.4856 97.1042 68.8696 97.2762 68.8696H105.232C105.404 68.8696 105.544 68.4856 105.544 68.0119V58.8778C105.544 58.404 105.404 58.02 105.232 58.02Z" fill="#8A93A6"/>
<path d="M108.262 48.6843H100.305C100.134 48.6843 99.9941 48.8719 99.9941 49.1032V53.5641C99.9941 53.7954 100.134 53.9829 100.305 53.9829H108.262C108.434 53.9829 108.573 53.7954 108.573 53.5641V49.1032C108.573 48.8719 108.434 48.6843 108.262 48.6843Z" fill="#8A93A6"/>
<path d="M70.16 73.6643H62.2039C62.032 73.6643 61.8926 73.8518 61.8926 74.0831V78.544C61.8926 78.7754 62.032 78.9629 62.2039 78.9629H70.16C70.332 78.9629 70.4714 78.7754 70.4714 78.544V74.0831C70.4714 73.8518 70.332 73.6643 70.16 73.6643Z" fill="#8A93A6"/>
<path d="M105.232 84.7664H97.2762C97.1042 84.7664 96.9648 84.9539 96.9648 85.1852V89.6461C96.9648 89.8774 97.1042 90.0649 97.2762 90.0649H105.232C105.404 90.0649 105.544 89.8774 105.544 89.6461V85.1852C105.544 84.9539 105.404 84.7664 105.232 84.7664Z" fill="#8A93A6"/>
<path d="M99.1776 73.1594H91.2215C91.0495 73.1594 90.9102 73.347 90.9102 73.5783V78.0392C90.9102 78.2705 91.0495 78.458 91.2215 78.458H99.1776C99.3495 78.458 99.4889 78.2705 99.4889 78.0392V73.5783C99.4889 73.347 99.3495 73.1594 99.1776 73.1594Z" fill="#8A93A6"/>
</svg>
