<svg width="164" height="168" viewBox="0 0 164 168" fill="none" xmlns="http://www.w3.org/2000/svg">
<path d="M63.2787 0.987326L59.6806 2.09566L56.8696 1.4692L54.669 2.4169L52.0187 1.79047L46.3646 2.72209L44.0194 3.97501L42.3167 4.2802L39.9555 5.53309H38.3974L38.2207 4.76207L34.9439 5.24397L33.8517 3.81437L32.9039 4.11957L30.3981 7.7337L24.9207 10.7053L23.202 13.0665L22.7201 15.8615L22.5595 16.0382L21.3066 17.5963L18.1744 19.7808L15.3794 20.4233L13.3395 23.2503L11.4601 24.3426L9.88596 27.6194L7.71748 29.3703L4.40855 34.2052L3.63753 36.3897L4.07123 35.6187L5.035 37.7872L3.94273 39.8432L4.24792 43.6019L2.36857 48.4529L0.167969 50.6535L1.90275 52.6613L1.74212 53.9303L3.63753 53.6251L2.06338 54.2516L1.42087 53.7857L0.955045 55.8096H2.06338L0.955045 56.2755L2.51314 56.4361L1.74212 57.0626L2.67376 57.2232L2.36857 57.8335L4.55311 57.2232L3.30021 57.7051L4.24792 58.1548L3.15565 58.7973L3.63753 59.5683L4.24792 59.2792L3.94273 59.8896L4.71374 59.4077L5.035 61.6083L5.96664 62.0741L6.91434 62.556L6.43246 63.327L7.21954 63.6322L7.38016 65.6883L8.16724 65.5276L7.07497 65.8489L8.79369 67.5516L8.63306 68.4993L11.2995 69.8967L16.4717 74.7637L19.1381 75.856L22.2704 74.2979L27.1213 73.6715L31.651 74.9244L36.3414 72.7398L39.6503 71.4709L45.4329 70.234L44.4852 70.8605L46.8464 71.0211L48.4045 72.4186L49.1916 71.9367L48.4045 72.5792L49.5129 72.7398L48.7258 72.8844L49.0471 73.3502L49.8181 72.8844L49.0471 73.816L50.6212 76.0327L52.3239 75.856V75.2296L52.6451 75.856L52.4845 75.0689L52.9503 75.856L53.2716 74.9244L53.898 75.5508L56.0986 75.3902L55.938 74.4585L56.709 75.5508L57.4961 74.9244L58.2671 76.8037L59.5361 76.4825L59.8413 77.1089H59.2309L60.1465 78.9883L58.5884 83.6786L59.5361 83.8553L59.3754 85.4134L58.5884 85.2527L60.1465 86.0398L59.0702 86.3611L58.5884 85.7346L58.1065 88.2404H57.0142L59.3754 92.4649L64.5477 97.4765L65.6399 100.609L66.8928 101.235L65.8006 101.54L68.6115 107.178L67.6799 108.737L68.7722 110.953L69.8484 113.443L69.4147 116.431L66.7161 119.242L65.0135 125.056L65.3187 130.052L71.7438 140.541L72.8521 148.99L77.8637 156.989L80.0322 160.587L80.1928 162.29L79.2612 162.932L80.3695 165.904L81.1566 165.438L83.4857 167.012L88.8185 165.294L93.3643 165.759L97.9101 164.507L104.64 159.8L106.841 156.989L107.773 155.881L110.262 153.841L112.302 148.54L111.997 148.99L111.371 148.203L118.262 144.139L118.872 139.754L117.475 136.011L117.619 133.955L118.101 134.437L121.538 132.076L122.968 129.747L130.02 126.454L130.325 125.827L132.493 122.695L132.06 118.149L132.493 117.667L132.188 114.23L132.975 112.656L131.578 111.58L130.935 111.098V110.953L130.325 106.857L130.791 105.781H130.164L131.096 103.741L129.377 101.396L130.469 98.103L132.349 94.1837L132.831 93.236L134.71 92.1598L134.228 91.3727H135.497L140.509 84.7709L145.809 80.5624L149.729 75.5508L154.901 63.4877V62.0741L154.756 61.2871L155.849 60.9819H155.062L155.222 57.7051L154.114 57.2232L151.624 58.7973L147.367 59.2792L145.52 60.3554L144.091 59.8896L141.585 61.1425L138.308 58.1548L136.894 58.3154L138.774 57.2232L138.469 56.1309L133.296 50.9587L131.096 50.1877L130.614 49.3845L130.164 48.9348L130.02 49.8664L126.711 42.8149L123.884 40.9194L122.647 35.6187L123.113 35.9078L121.876 33.5787L119.049 31.5388L118.262 29.3381H118.872L117.314 28.0853L113.089 20.7285L110.744 18.2227L110.182 16.3434C110.176 16.3338 110.172 16.3211 110.166 16.3112C110.134 16.258 110.102 16.2001 110.086 16.1345C109.978 15.7047 109.716 15.2559 109.716 14.7049V14.464C109.716 14.2283 109.688 13.9842 109.652 13.7412L108.865 13.8536L108.399 12.9059L106.52 12.7453L102.745 14.3034L98.392 13.0665L94.6172 12.9059L93.9908 11.9582L90.5373 11.5085L90.0714 10.5447L87.2444 9.9343L83.9515 11.5085V14.3034H83.807L81.6064 15.4278L79.2612 14.1588L74.876 13.0665L73.7677 11.0266L70.0251 9.9343L67.8405 10.0789L63.6 8.21558L63.2787 7.25181L65.8006 5.24395L64.5477 3.34855L65.8006 1.4692L64.5477 2.24022L63.2787 0.987326ZM7.71748 29.3703L7.84598 29.1775L7.38016 29.6594L7.71748 29.3703ZM33.6589 3.62162L33.691 3.68586L33.7713 3.62162C33.7331 3.62373 33.6973 3.62021 33.6589 3.62162ZM15.2188 17.7569L14.1105 18.56L14.8976 18.2227L15.2188 17.7569ZM14.1105 18.7046L12.5524 20.2627L13.484 19.9575L14.1105 18.7046ZM9.88596 19.1704L8.32787 19.6362L8.47243 20.4233L9.88596 19.1704ZM10.3518 19.9575L10.0466 20.5839L10.8176 20.4233L10.3518 19.9575ZM112.624 29.1775L113.411 31.6994L111.21 32.1813L109.17 34.8316L110.423 32.3258L112.302 31.86L112.624 29.1775ZM7.21954 46.0917L8.79369 47.3606L9.88596 49.7058L7.21954 46.2683L3.63753 46.4129L7.21954 46.0917ZM130.325 47.971L130.469 48.6135L131.417 48.7581L130.469 47.971H130.325ZM28.053 48.4529L28.8401 49.3845L28.2136 49.5452L28.053 48.4529ZM69.4147 52.5328L69.8484 54.107L70.8121 53.6251V54.3961L72.9967 54.7174L70.1857 56.1309L68.4509 52.838L69.4147 52.5328ZM125.618 56.4361L125.313 58.1548L124.526 56.918L125.618 56.4361ZM46.6858 58.7973L48.0993 59.8896L47.6335 62.0741V62.4115L47.489 62.0741L47.0071 61.1425L47.9227 59.8896L46.6858 58.7973ZM34.1729 64.2747L36.6626 67.2464L36.8233 67.5676L37.3052 64.5799L36.6626 71.4709V70.6838L36.5181 70.5392L34.7833 69.7522L36.3414 70.234L36.5181 69.8967L36.8233 68.6599L36.5181 68.178L36.0362 68.0174H34.9439L36.3414 67.5676L34.7833 66.7645L34.4781 65.367H32.7433L34.3175 65.2064L34.1729 64.2747ZM51.6974 65.367L52.6451 67.407L51.6974 73.1896L52.4845 67.2464L51.6974 65.367ZM24.1497 66.6199L23.5233 68.3386L23.8285 68.8045L24.4389 68.3386L24.1497 69.5915L23.202 68.4993L24.1497 66.6199ZM123.594 75.0689L124.671 80.723L122.791 77.5908L123.594 75.0689ZM57.6567 77.2856L56.3878 78.2012V78.3618L57.0142 78.6831L57.6567 77.2856ZM80.3695 80.5624L79.2612 87.614L80.996 83.9998L83.0359 82.9076L84.7386 81.9759L85.2044 81.6386L90.3445 81.237L90.5373 81.2049L90.5694 81.221L90.8585 81.2049L96.0307 84.7709L90.5694 81.221L90.3445 81.237L84.7386 82.4417L83.0359 82.9076L80.8193 84.4817L80.996 86.5056L75.5025 91.8224L75.3419 94.0391L75.1973 91.983L79.1166 87.6139L80.3695 80.5624ZM112.624 80.723L112.142 82.4418L110.423 83.9998L110.262 82.9076L112.624 80.723ZM117.475 82.4418L116.543 82.763L116.848 83.534L115.29 83.0682L117.475 82.4418ZM117.169 85.2527L117.475 86.0398L118.583 85.8953L119.193 87.4534L120.302 86.8108L120.607 87.2927L118.727 87.9192L118.583 90.2644L116.704 91.5172L118.262 91.9831L117.169 92.7862L116.061 92.4649L116.222 93.5572L115.595 94.0391L115.74 92.7862L114.342 92.1598L113.411 93.5572L112.929 91.5172L113.86 86.6663L115.435 85.8953L116.222 86.3611L117.169 85.2527ZM108.865 86.8108L107.612 88.0637L107.917 86.9875L108.865 86.8108ZM60.1465 88.5456L60.9496 88.8508L60.1465 89.3327V88.5456ZM81.1566 90.425L80.5141 91.3727L81.3011 91.6779L80.3695 93.0914L80.0322 90.7302L81.1566 90.425ZM106.841 90.425L107.612 91.5172L106.359 92.6095L106.841 90.425ZM107.451 94.8101L108.865 100.769L108.238 101.862L110.262 103.564L111.531 107.966L109.957 107.339L109.17 104.367L106.986 101.54L107.13 96.5128L106.664 97.1553L107.451 94.8101ZM130.614 100.609L130.325 101.685L131.096 102.488L130.791 101.235L130.614 100.609ZM113.411 105.138L114.824 106.407L113.411 106.086V105.138ZM108.094 107.339L109.009 107.484L107.451 108.431L108.094 107.339ZM106.664 107.66L105.572 109.7L104.64 109.845L104.785 108.737L106.664 107.66ZM118.101 109.845L119.193 110.953L119.98 114.535L119.193 116.88L120.141 121.587L118.727 120.96L117.619 116.431L118.583 115.017L117.956 110.953L117.796 110.311H117.956L118.101 109.845ZM108.238 113.138H108.399V114.085L107.612 114.391L108.238 113.138ZM138.774 114.391L138.469 115.162L138.918 115.644L138.774 114.391ZM151.142 115.788L149.889 116.88L149.729 119.081L148.492 120.173L147.849 119.707V121.282H147.367L146.452 123.161L146.596 122.213L145.52 123.466L145.809 124.093L145.199 124.414L145.36 123.466L144.251 124.253V125.346L143.641 124.719L139.882 125.827L138.308 128.96L138.629 134.758L136.107 137.714L135.192 140.075L135.497 146.179L137.216 147.111L141.585 146.018L149.263 130.518L149.729 128.173L150.692 127.385V124.253L151.287 124.093L151.624 125.346L152.395 124.093L152.09 118.31L150.837 116.575L151.142 115.788ZM140.958 115.949L140.509 116.27L141.119 116.736L140.958 115.949ZM105.572 126.759L103.387 127.385L100.721 130.052L102.745 127.385L105.572 126.759ZM163.687 134.758L163.045 136.011L163.832 135.369L163.687 134.758ZM159.768 136.798L158.981 137.087L159.768 137.874V136.798ZM97.7495 151.335L97.2676 152.283L96.4162 152.01H96.3841L96.9463 152.443L96.1753 152.138L96.3841 152.01L96.3359 151.978L96.4162 152.01L97.7495 151.335Z" fill="#8A93A6"/>
<path d="M122.932 69.7434H75.5066C72.2367 69.7434 69.5859 73.3274 69.5859 77.7485V88.9475C69.5859 93.3686 72.2367 96.9526 75.5066 96.9526H122.932C126.202 96.9526 128.853 93.3686 128.853 88.9475V77.7485C128.853 73.3274 126.202 69.7434 122.932 69.7434Z" fill="#8A93A6"/>
<path d="M117.867 95.6055H79.4955C76.8498 95.6055 74.7051 100.112 74.7051 105.671V119.753C74.7051 125.312 76.8498 129.819 79.4955 129.819H117.867C120.513 129.819 122.658 125.312 122.658 119.753V105.671C122.658 100.112 120.513 95.6055 117.867 95.6055Z" fill="#8A93A6"/>
<path d="M104.165 142.481H89.9643C88.9852 142.481 88.1914 144.149 88.1914 146.206V151.417C88.1914 153.474 88.9852 155.142 89.9643 155.142H104.165C105.144 155.142 105.938 153.474 105.938 151.417V146.206C105.938 144.149 105.144 142.481 104.165 142.481Z" fill="#8A93A6"/>
<path d="M73.7832 48.7305H14.7436C10.6729 48.7305 7.37305 50.3983 7.37305 52.4556V57.6668C7.37305 59.7242 10.6729 61.392 14.7436 61.392H73.7832C77.8538 61.392 81.1537 59.7242 81.1537 57.6668V52.4556C81.1537 50.3983 77.8538 48.7305 73.7832 48.7305Z" fill="#8A93A6"/>
<path d="M124.699 52.2327H65.6596C61.5889 52.2327 58.2891 53.9005 58.2891 55.9578V61.169C58.2891 63.2264 61.5889 64.8942 65.6596 64.8942H124.699C128.77 64.8942 132.07 63.2264 132.07 61.169V55.9578C132.07 53.9005 128.77 52.2327 124.699 52.2327Z" fill="#8A93A6"/>
<path d="M107.996 26.3704H48.9564C44.8858 26.3704 41.5859 28.0382 41.5859 30.0955V35.3067C41.5859 37.3641 44.8858 39.0319 48.9564 39.0319H107.996C112.067 39.0319 115.367 37.3641 115.367 35.3067V30.0955C115.367 28.0382 112.067 26.3704 107.996 26.3704Z" fill="#8A93A6"/>
<path d="M80.7871 57.8896H21.7475C17.6768 57.8896 14.377 59.5575 14.377 61.6148V66.826C14.377 68.8834 17.6768 70.5512 21.7475 70.5512H80.7871C84.8577 70.5512 88.1576 68.8834 88.1576 66.826V61.6148C88.1576 59.5575 84.8577 57.8896 80.7871 57.8896Z" fill="#8A93A6"/>
<path d="M71.0879 44.1506H12.0482C7.97762 44.1506 4.67773 45.8184 4.67773 47.8758V53.087C4.67773 55.1444 7.97762 56.8122 12.0482 56.8122H71.0879C75.1585 56.8122 78.4584 55.1444 78.4584 53.087V47.8758C78.4584 45.8184 75.1585 44.1506 71.0879 44.1506Z" fill="#8A93A6"/>
</svg>
