<svg width="174" height="160" viewBox="0 0 174 160" fill="none" xmlns="http://www.w3.org/2000/svg">
<path fill-rule="evenodd" clip-rule="evenodd" d="M129.813 0.17543L127.917 1.38513L127.623 6.38745L125.138 8.87225L127.002 9.16652L124.517 15.117L125.138 21.0021L119.842 33.1645L117.03 32.8376H115.199L112.681 29.7316L101.794 24.7293L95.8762 19.7923L98.9822 13.8419L98.0668 12.011L100.846 11.684V9.49345L103.363 7.3356L101.173 5.14503L98.688 8.28374V6.06049L96.7917 6.7144L98.0668 5.43929L94.9607 7.3356L92.4759 5.43929L89.6315 6.7144L88.7487 4.52383L86.5255 5.14503L79.398 1.71208L78.4498 2.66022L82.7983 4.22958L83.1252 6.7144L76.9132 7.3356L75.965 6.38745L73.8072 7.9568L74.7226 9.16652L72.859 7.9568L73.4802 9.49345H71.6166V12.5995L69.1318 13.5476L67.2355 17.6018L70.3415 19.1711L68.5106 21.6233L66.9413 20.0539L66.32 22.2771L66.0258 20.3808L63.5083 19.7923L61.9716 21.329L62.5601 23.5195L61.6447 21.9502L61.0235 23.5195L61.9716 19.7923L57.9175 16.0651L55.4 15.4112L54.1903 17.896L53.8633 16.3267L52.294 17.896L51.3785 16.3267L51.0842 20.0539L49.5149 18.223L47.357 20.7078L49.1879 22.5714L46.0819 22.8983L48.2725 24.7293L45.4607 23.1926L44.2183 25.3832L44.8395 26.9525L45.7877 26.0044L44.5126 28.7834H47.0301L44.5126 29.7316L40.4911 28.1622V30.6797L42.6817 31.2682V33.4588L40.7854 32.2164L41.1123 35.3224L37.6794 29.4046L34.5733 34.08L35.8484 38.1342L30.5192 45.6213L25.8438 47.158L21.8223 48.7273L14.6622 53.4027L12.1773 52.7488L3.77476 60.2359L2.82662 63.9631L0.962996 60.8571L0.341797 73.6081L5.01718 82.3049L3.44782 80.7356L2.89201 81.8799L3.77476 83.8743L0.668758 82.0107L9.98678 95.4156L11.2292 99.437L11.8504 101.922L16.5258 108.461L16.8527 114.967L14.3352 116.242L15.6103 120.296L22.1166 122.748L27.1189 122.454L33.6252 115.621H33.9521L47.9455 114.379L50.463 109.703L56.9693 105.649L78.1229 100.679L90.9066 105.355L90.2854 107.513L93.0644 108.755L96.2031 115.621L94.6338 115.294L98.0668 117.485V115.294L105.521 107.84V105.355L106.142 110.651L103.985 113.43V116.863H102.415L101.467 118.727L105.194 118.106L106.764 113.43L108.627 116.536L106.469 120.591L109.575 119.969L112.06 122.16L112.681 123.697L112.354 123.075L112.681 128.078L113.63 129.32L115.787 132.099L126.707 136.775L132.298 132.099L132.919 133.669L131.023 134.29H134.489L133.868 135.532L136.974 138.017V136.48L143.807 133.374L141.943 133.963L142.859 133.047L151.883 132.099L153.746 123.697L156.885 120.918L155.937 119.969L159.37 113.757L165.582 109.409L164.993 107.84L168.72 102.87L170.257 97.8677L172.742 91.6557L171.205 84.7897L172.742 78.2835L167.772 68.3115L164.045 65.2055V59.6147L163.718 61.1841L161.201 58.0453V60.8571L160.318 59.2877L159.37 60.2359L156.558 48.4004L145.671 40.9459L144.755 31.2682L142.238 28.7834L142.532 21.6233L138.805 17.6018L135.077 18.5172L134.489 10.7359L129.813 0.17543ZM2.89201 81.8799L1.61689 78.9047L2.82662 82.0107L2.89201 81.8799ZM71.6166 2.33328L74.3957 5.76624L77.2074 3.28143L74.7226 2.95448L73.8072 3.90263L71.6166 2.33328ZM71.6166 2.95448L70.08 5.14503L72.859 4.81808L71.6166 2.95448ZM102.088 13.5476L100.519 15.4112L100.257 16.6536L103.036 16.9479L102.088 13.5476ZM66.0258 26.2986L64.4564 29.4046L63.8352 26.6256L66.0258 26.2986ZM173.657 72.3657L172.121 75.7987L172.448 77.3353L173.657 72.3657ZM100.519 120.918L102.088 122.454L106.469 121.212L100.519 120.918ZM142.532 141.744V143.641L143.807 144.262L142.532 141.744ZM130.108 145.471L129.813 148.937L132.298 153.58L131.023 152.664V154.528L133.214 157.928L136.025 159.824L137.889 155.77L140.374 158.255L141.943 152.337L142.238 153.58V146.747L136.647 148.61L130.108 145.471Z" fill="#8A93A6"/>
</svg>
